<svg width="152" height="153" viewBox="0 0 152 153" fill="none" xmlns="http://www.w3.org/2000/svg">
  <path d="M141.187 94.3605C143.715 84.9286 153.098 76.0099 151.894 66.9021C150.648 57.456 139.135 51.2715 134.45 43.1472C129.759 35.0209 130.157 21.9656 122.6 16.1633C115.307 10.5644 102.899 14.2334 93.4669 11.7061C84.035 9.17889 75.1163 -0.204667 66.0085 0.999772C56.5625 2.24597 50.378 13.7586 42.2536 18.4431C34.1273 23.1348 21.0721 22.7364 15.2698 30.2938C9.67087 37.5864 13.3398 49.9948 10.8126 59.4266C8.28532 68.8585 -1.09822 77.7772 0.106218 86.885C1.35241 96.3311 12.8651 102.516 17.5495 110.64C22.2413 118.766 21.8428 131.821 29.4003 137.624C36.6929 143.223 49.1012 139.554 58.5331 142.081C67.965 144.608 76.8837 153.992 85.9914 152.787C95.4375 151.541 101.622 140.028 109.746 135.344C117.873 130.652 130.928 131.051 136.73 123.493C142.327 116.208 138.66 103.792 141.187 94.3605Z" fill="#5452FF"/>
  <path fill-rule="evenodd" clip-rule="evenodd" d="M95.415 82.8218C99.8137 90.4407 109.556 93.0511 117.175 88.6523L119.175 92.1164C109.643 97.6197 97.4542 94.3538 91.9509 84.8218L95.415 82.8218Z" fill="#101010"/>
  <path fill-rule="evenodd" clip-rule="evenodd" d="M52.3296 71.2774C56.7283 78.8962 66.4705 81.5066 74.0893 77.1079L76.0893 80.572C66.5573 86.0753 54.3688 82.8094 48.8655 73.2774L52.3296 71.2774Z" fill="#101010"/>
  <path fill-rule="evenodd" clip-rule="evenodd" d="M58.4941 108.704C62.8928 116.323 72.635 118.933 80.2539 114.535L82.2539 117.999C72.7219 123.502 60.5333 120.236 55.03 110.704L58.4941 108.704Z" fill="#101010"/>
  <path fill-rule="evenodd" clip-rule="evenodd" d="M83.1805 102.333L67.6094 98.1609L68.6447 94.2972L77.756 96.7386C75.9524 83.6538 84.131 70.9662 97.2209 67.4588C111.405 63.6582 125.984 72.0755 129.785 86.2594L125.921 87.2947C122.692 75.2447 110.306 68.0937 98.2562 71.3225C86.2062 74.5513 79.0552 86.9372 82.284 98.9872L83.1805 102.333Z" fill="#101010"/>
</svg>
