<svg width="99" height="99" viewBox="0 0 99 99" fill="none" xmlns="http://www.w3.org/2000/svg">
  <path d="M90.1067 30.6955C100.314 53.3005 90.2633 79.8999 67.6583 90.107C45.0534 100.314 18.4539 90.2637 8.24681 67.6587C-1.96028 45.0537 8.09019 18.4543 30.6952 8.24716C53.3001 -1.95994 79.8996 8.09053 90.1067 30.6955Z" fill="#FF613F"/>
  <path d="M20.9727 62.3318C21.1574 54.3071 25.8411 46.7085 33.6455 43.1845C40.7513 39.9759 48.6802 40.9416 54.6785 45.041C54.4938 53.0658 49.81 60.6643 42.0056 64.1883C34.8998 67.3969 26.971 66.4312 20.9727 62.3318Z" fill="#FFFAFA"/>
  <path d="M65.3421 39.0122C65.4277 35.2925 67.5988 31.7703 71.2164 30.1368C74.5102 28.6496 78.1854 29.0972 80.9658 30.9974C80.8802 34.7171 78.7091 38.2393 75.0916 39.8728C71.7978 41.36 68.1225 40.9124 65.3421 39.0122Z" fill="#FFFAFA"/>
  <path fill-rule="evenodd" clip-rule="evenodd" d="M59.9994 68.6271C62.424 67.5323 63.502 64.6793 62.4072 62.2547L64.3652 61.3706C65.9483 64.8766 64.3895 69.002 60.8836 70.5851C57.3776 72.1682 53.2521 70.6094 51.669 67.1035L53.6271 66.2193C54.7219 68.6439 57.5749 69.7219 59.9994 68.6271Z" fill="#101010"/>
  <path d="M23.1684 53.3365C25.2949 48.9903 28.8911 45.3315 33.6454 43.1847C37.808 41.3051 42.2531 40.858 46.427 41.6341C48.2648 47.1828 45.0074 53.6507 38.759 56.4722C32.9081 59.114 26.3933 57.6745 23.1684 53.3365Z" fill="#101010"/>
  <path d="M66.1735 35.2465C67.1277 33.0556 68.867 31.198 71.2165 30.1371C73.0404 29.3136 74.9813 29.0833 76.8224 29.3644C76.86 29.4371 76.8958 29.5112 76.9298 29.5865C78.1323 32.2496 76.62 35.5314 73.552 36.9168C70.7447 38.1844 67.6076 37.4249 66.1735 35.2465Z" fill="#101010"/>
  <path fill-rule="evenodd" clip-rule="evenodd" d="M34.0876 44.1636C26.674 47.5111 22.2222 54.7293 22.0466 62.3566L19.8988 62.3072C20.0926 53.8849 25.0084 45.906 33.2035 42.2055C40.6648 38.8364 48.9899 39.8521 55.2846 44.1541L54.0724 45.9279C48.3706 42.0311 40.8378 41.1155 34.0876 44.1636Z" fill="#101010"/>
  <path fill-rule="evenodd" clip-rule="evenodd" d="M71.6586 31.1162C68.4317 32.5733 66.4926 35.7151 66.4161 39.0373L64.2683 38.9879C64.3631 34.8707 66.7661 30.9681 70.7744 29.1582C74.4238 27.5104 78.4952 28.008 81.5721 30.1109L80.3599 31.8846C77.8759 30.187 74.5968 29.7895 71.6586 31.1162Z" fill="#101010"/>
  <path fill-rule="evenodd" clip-rule="evenodd" d="M24.7219 25.912C14.4225 30.5626 9.84322 42.682 14.4938 52.9815L12.5358 53.8656C7.39688 42.4848 12.4569 29.0929 23.8378 23.9539C35.2186 18.815 48.6105 23.8751 53.7495 35.2559L51.7914 36.1401C47.1408 25.8406 35.0214 21.2614 24.7219 25.912Z" fill="#101010"/>
  <path fill-rule="evenodd" clip-rule="evenodd" d="M66.5596 47.0833L57.8331 51.0236L56.949 49.0656L62.3893 46.6091C56.3978 41.2006 55.3035 32.0357 60.1239 25.3271C65.2999 18.1236 75.3356 16.48 82.5391 21.656L81.2854 23.4007C75.0455 18.9171 66.3523 20.3408 61.8686 26.5808C57.3849 32.8207 58.8087 41.5139 65.0486 45.9976L66.5596 47.0833Z" fill="#101010"/>
</svg>
