<svg width="139" height="127" viewBox="0 0 139 127" fill="none" xmlns="http://www.w3.org/2000/svg">
  <path d="M7.28422 10.0923C7.86185 3.96677 13.2799 -0.529206 19.3858 0.0502825L128.94 10.4477C135.046 11.0272 139.528 16.4627 138.95 22.5883L131.716 99.3038C131.138 105.429 125.72 109.925 119.614 109.346L10.0599 98.9484C3.95403 98.3689 -0.527505 92.9334 0.0501211 86.8079L7.28422 10.0923Z" fill="#5452FF"/>
  <path d="M25.8939 28.8366C25.9576 24.7459 29.4446 21.4836 33.6823 21.55L109.716 22.7422C113.954 22.8087 117.338 26.1787 117.274 30.2695L116.476 81.5009C116.412 85.5916 112.925 88.8539 108.688 88.7874L32.6533 87.5952C28.4156 87.5287 25.032 84.1587 25.0957 80.068L25.8939 28.8366Z" fill="#101010"/>
  <path d="M14.3798 28.5682C14.4438 24.464 17.9422 21.191 22.1938 21.2577L98.4776 22.4538C102.729 22.5205 106.124 25.9016 106.06 30.0057L105.259 81.4053C105.195 85.5095 101.697 88.7825 97.4453 88.7158L21.1614 87.5197C16.9099 87.453 13.5151 84.0719 13.579 79.9678L14.3798 28.5682Z" fill="#FFFAFA"/>
  <path d="M14.1755 112.052C14.4925 108.69 17.4664 106.222 20.8178 106.54L107.817 114.797C111.169 115.115 113.628 118.098 113.311 121.461C112.994 124.823 110.02 127.291 106.669 126.972L19.6697 118.716C16.3183 118.398 13.8584 115.414 14.1755 112.052Z" fill="#5452FF"/>
  <path d="M57.0341 49.817C56.8204 52.083 49.6438 53.2553 41.0046 52.4354C32.3654 51.6155 25.5352 49.1138 25.7488 46.8478C25.9625 44.5818 33.1392 43.4095 41.7784 44.2295C50.4176 45.0494 57.2478 47.551 57.0341 49.817Z" fill="#101010"/>
  <path d="M93.7811 53.3042C93.5674 55.5702 86.2016 56.7245 77.329 55.8825C68.4564 55.0404 61.437 52.5208 61.6507 50.2548C61.8644 47.9888 69.2302 46.8345 78.1028 47.6765C86.9754 48.5186 93.9948 51.0382 93.7811 53.3042Z" fill="#101010"/>
  <path d="M29.7891 64.0741L29.3259 64.0301C28.789 68.4628 24.8837 71.6997 20.447 71.3979L20.4032 71.8627C24.8216 72.4013 28.0481 76.3191 27.7473 80.7702L28.2106 80.8141C28.7475 76.3814 32.6527 73.1445 37.0895 73.4463L37.1333 72.9815C32.7189 72.4433 29.492 68.5295 29.7891 64.0741Z" fill="#101010"/>
  <path fill-rule="evenodd" clip-rule="evenodd" d="M57.5287 60.2883C57.1013 64.8203 60.417 68.8418 64.9344 69.2705L64.6249 72.5529C58.3005 71.9526 53.6585 66.3226 54.2568 59.9778L57.5287 60.2883Z" fill="#202020"/>
</svg>
