<svg width="157" height="157" viewBox="0 0 157 157" fill="none" xmlns="http://www.w3.org/2000/svg">
  <circle r="69.81" transform="matrix(-0.991138 0.132839 0.132839 0.991138 78.465 78.4643)" fill="#FECD1A"/>
  <ellipse rx="12.5827" ry="26.3094" transform="matrix(-0.991138 0.132839 0.132839 0.991138 46.7366 65.3718)" fill="#101010"/>
  <ellipse rx="12.5827" ry="26.3094" transform="matrix(-0.991138 0.132839 0.132839 0.991138 86.4177 60.0535)" fill="#101010"/>
  <path fill-rule="evenodd" clip-rule="evenodd" d="M71.2575 117.09C69.3306 112.109 67.5819 105.01 66.5066 96.9872L62.865 97.4753C63.967 105.698 65.772 113.094 67.8307 118.415C68.8547 121.062 69.9787 123.295 71.1737 124.867C72.2681 126.306 73.8892 127.794 75.9419 127.518C77.9946 127.243 79.1669 125.382 79.8436 123.705C80.5824 121.874 81.0789 119.424 81.3697 116.601C81.9544 110.925 81.7482 103.314 80.6462 95.0921L77.0046 95.5802C78.0798 103.603 78.2621 110.912 77.7148 116.224C77.4397 118.895 76.9901 120.957 76.4363 122.33C75.9328 123.578 75.5288 123.828 75.453 123.871C75.3686 123.85 74.913 123.714 74.0987 122.643C73.203 121.465 72.2263 119.594 71.2575 117.09Z" fill="#101010"/>
</svg>
