<svg width="190" height="162" viewBox="0 0 190 162" fill="none" xmlns="http://www.w3.org/2000/svg">
  <path fill-rule="evenodd" clip-rule="evenodd" d="M156.684 92.4412C168.875 78.4727 174.105 62.5751 169.356 48.4727C160.339 21.7019 118.773 11.5377 76.515 25.7702C34.2569 40.0028 7.30923 73.2425 16.3256 100.013C25.342 126.784 66.9082 136.948 109.166 122.716C110.835 122.154 112.48 121.562 114.1 120.942C120.646 127.161 130.895 129.522 140.723 126.212C154.396 121.607 162.076 107.769 157.878 95.3027C157.543 94.3093 157.143 93.3547 156.684 92.4412Z" fill="#FF613F"/>
  <path d="M146.231 106.212C147.716 110.62 145.346 115.397 140.938 116.881C136.531 118.366 131.754 115.996 130.27 111.588C128.785 107.181 133.536 94.9014 133.536 94.9014C133.536 94.9014 144.747 101.805 146.231 106.212Z" fill="#FFFAFA"/>
  <path d="M157.886 51.8932C157.886 51.8932 138.566 90.5347 102.742 102.6C66.9187 114.665 28.1578 95.5857 28.1578 95.5857C28.1578 95.5857 47.4782 56.9442 83.3017 44.8788C119.125 32.8134 157.886 51.8932 157.886 51.8932Z" fill="white"/>
  <path d="M157.886 51.8932C157.886 51.8932 119.125 32.8134 83.3017 44.8788C47.4782 56.9442 28.1578 95.5857 28.1578 95.5857" stroke="#101010" stroke-width="3"/>
  <circle cx="93.0244" cy="73.7387" r="15.7629" transform="rotate(-18.6136 93.0244 73.7387)" fill="#101010"/>
</svg>
