<svg width="127" height="153" fill="none" xmlns="http://www.w3.org/2000/svg">
  <path d="M111.671 103.991c-22.572 39.015-62.52 58.117-89.225 42.666-26.706-15.45-30.057-59.603-7.485-98.617 22.572-39.015 62.52-58.117 89.225-42.666 26.705 15.45 30.057 59.603 7.485 98.617z" fill="#5452FF"/>
  <path d="M77.234 33.65c-4.29 7.416-11.783 11.104-16.737 8.238-4.953-2.866-5.49-11.2-1.2-18.615 4.29-7.416 11.783-11.104 16.736-8.238 4.953 2.866 5.49 11.2 1.2 18.615z" fill="#fff"/>
  <path fill-rule="evenodd" clip-rule="evenodd" d="M67.858 16.196c-2.828 1.392-5.636 4.017-7.696 7.578-2.06 3.56-2.936 7.302-2.733 10.448.203 3.154 1.471 5.587 3.57 6.8 2.097 1.214 4.838 1.101 7.674-.295 2.828-1.392 5.635-4.017 7.695-7.577 2.06-3.56 2.937-7.303 2.734-10.449-.204-3.154-1.472-5.587-3.57-6.8-2.098-1.214-4.839-1.1-7.674.295zm-.883-1.795c3.222-1.585 6.704-1.883 9.559-.232 2.855 1.652 4.332 4.82 4.564 8.403.231 3.592-.768 7.724-2.999 11.58-2.23 3.854-5.314 6.78-8.543 8.37-3.222 1.586-6.704 1.884-9.56.232-2.855-1.652-4.332-4.82-4.563-8.403-.232-3.592.768-7.724 2.998-11.579 2.23-3.855 5.314-6.781 8.544-8.37z" fill="#101010"/>
  <path d="M70.9 29.986c-2.519 4.354-5.74 7.2-7.196 6.359-1.456-.842-.594-5.055 1.925-9.409 2.52-4.354 5.741-7.2 7.197-6.358 1.456.842.594 5.054-1.925 9.408z" fill="#101010"/>
  <path d="M88.48 63.663c-4.29 7.415-11.783 11.103-16.737 8.237-4.953-2.866-5.49-11.2-1.2-18.615 4.29-7.415 11.783-11.103 16.736-8.238 4.953 2.866 5.49 11.2 1.2 18.616z" fill="#fff"/>
  <path fill-rule="evenodd" clip-rule="evenodd" d="M79.104 46.208c-2.828 1.392-5.636 4.018-7.696 7.578-2.06 3.56-2.936 7.303-2.733 10.448.203 3.154 1.471 5.587 3.57 6.8 2.097 1.215 4.838 1.101 7.674-.294 2.828-1.392 5.636-4.018 7.695-7.578 2.06-3.56 2.937-7.303 2.734-10.449-.204-3.154-1.472-5.586-3.57-6.8-2.098-1.214-4.839-1.1-7.674.295zm-.883-1.794c3.222-1.586 6.704-1.884 9.559-.232 2.855 1.652 4.333 4.819 4.564 8.402.231 3.592-.768 7.724-2.998 11.58-2.23 3.854-5.315 6.78-8.544 8.37-3.222 1.586-6.704 1.884-9.56.232-2.855-1.652-4.332-4.82-4.563-8.403-.232-3.592.768-7.724 2.998-11.579 2.23-3.855 5.314-6.78 8.544-8.37z" fill="#101010"/>
  <path d="M82.146 59.999c-2.519 4.354-5.741 7.2-7.197 6.358-1.455-.842-.593-5.054 1.926-9.408 2.519-4.354 5.741-7.2 7.197-6.359 1.455.842.593 5.055-1.926 9.409z" fill="#101010"/>
  <path d="M55.028 68.444c-4.29 7.415-11.783 11.104-16.736 8.238-4.953-2.866-5.491-11.2-1.201-18.615 4.29-7.416 11.783-11.104 16.736-8.238 4.954 2.866 5.491 11.2 1.201 18.615z" fill="#fff"/>
  <path fill-rule="evenodd" clip-rule="evenodd" d="M45.652 50.99c-2.828 1.392-5.636 4.017-7.695 7.578-2.06 3.56-2.937 7.303-2.734 10.448.203 3.154 1.472 5.587 3.57 6.8 2.098 1.214 4.839 1.101 7.674-.295 2.828-1.392 5.636-4.017 7.696-7.577 2.06-3.56 2.936-7.303 2.733-10.449-.203-3.154-1.471-5.587-3.57-6.8-2.097-1.214-4.838-1.1-7.674.295zm-.883-1.795c3.222-1.586 6.704-1.883 9.56-.231 2.855 1.651 4.332 4.819 4.563 8.402.232 3.592-.768 7.724-2.998 11.58-2.23 3.854-5.314 6.78-8.544 8.37-3.222 1.586-6.704 1.884-9.559.232-2.855-1.652-4.333-4.82-4.564-8.403-.231-3.592.768-7.724 2.998-11.579 2.23-3.855 5.315-6.781 8.544-8.37z" fill="#101010"/>
  <path d="M48.694 64.78c-2.519 4.354-5.74 7.2-7.196 6.359-1.456-.842-.594-5.055 1.925-9.409 2.52-4.354 5.741-7.2 7.197-6.358 1.456.842.593 5.054-1.926 9.408z" fill="#101010"/>
  <path d="M106.742 89.41c-4.291 7.414-11.784 11.102-16.737 8.237-4.953-2.866-5.49-11.2-1.2-18.616 4.29-7.415 11.783-11.103 16.736-8.237 4.953 2.865 5.491 11.2 1.201 18.615z" fill="#fff"/>
  <path fill-rule="evenodd" clip-rule="evenodd" d="M97.366 71.955c-2.829 1.392-5.636 4.017-7.696 7.577-2.06 3.56-2.936 7.303-2.734 10.449.204 3.154 1.472 5.587 3.57 6.8 2.098 1.214 4.839 1.1 7.674-.295 2.829-1.392 5.636-4.017 7.696-7.578 2.06-3.56 2.936-7.302 2.734-10.448-.204-3.154-1.472-5.587-3.57-6.8-2.098-1.214-4.839-1.101-7.674.295zm-.884-1.795c3.222-1.586 6.704-1.884 9.56-.232 2.855 1.652 4.332 4.82 4.563 8.403.232 3.592-.767 7.724-2.998 11.579-2.23 3.855-5.314 6.781-8.543 8.37-3.222 1.586-6.704 1.884-9.56.233-2.855-1.652-4.332-4.82-4.563-8.403-.232-3.592.767-7.724 2.998-11.58 2.23-3.854 5.314-6.78 8.543-8.37z" fill="#101010"/>
  <path d="M100.408 85.745c-2.519 4.354-5.74 7.201-7.196 6.359-1.456-.842-.594-5.054 1.925-9.408 2.52-4.354 5.741-7.201 7.197-6.36 1.455.843.593 5.055-1.926 9.41z" fill="#101010"/>
  <path d="M71.017 99.227c-4.29 7.415-11.783 11.103-16.736 8.238-4.954-2.866-5.491-11.2-1.201-18.616 4.29-7.415 11.783-11.103 16.736-8.237 4.953 2.865 5.491 11.2 1.201 18.615z" fill="#fff"/>
  <path fill-rule="evenodd" clip-rule="evenodd" d="M61.641 81.772c-2.828 1.392-5.636 4.018-7.696 7.578-2.06 3.56-2.936 7.303-2.733 10.449.203 3.154 1.471 5.586 3.57 6.8 2.097 1.214 4.838 1.101 7.674-.295 2.828-1.392 5.636-4.017 7.695-7.578 2.06-3.56 2.937-7.303 2.734-10.448-.203-3.154-1.472-5.587-3.57-6.8-2.097-1.214-4.838-1.101-7.674.294zm-.883-1.794c3.222-1.586 6.704-1.884 9.56-.232 2.854 1.652 4.332 4.82 4.563 8.403.231 3.592-.768 7.724-2.998 11.579-2.23 3.855-5.315 6.781-8.544 8.37-3.222 1.586-6.704 1.884-9.56.232-2.855-1.652-4.332-4.819-4.563-8.402-.232-3.592.768-7.724 2.998-11.58 2.23-3.854 5.315-6.78 8.544-8.37z" fill="#101010"/>
  <path d="M64.684 95.563c-2.52 4.354-5.741 7.201-7.197 6.359-1.456-.842-.593-5.054 1.926-9.409 2.519-4.354 5.74-7.2 7.196-6.358 1.456.842.594 5.054-1.925 9.408z" fill="#101010"/>
  <path d="M36.113 107.476c-4.29 7.416-11.783 11.104-16.736 8.238-4.954-2.866-5.491-11.2-1.201-18.615 4.29-7.415 11.783-11.103 16.737-8.238 4.953 2.866 5.49 11.2 1.2 18.615z" fill="#fff"/>
  <path fill-rule="evenodd" clip-rule="evenodd" d="M26.737 90.022c-2.828 1.392-5.636 4.018-7.695 7.578-2.06 3.56-2.937 7.303-2.734 10.448.203 3.154 1.471 5.587 3.57 6.801 2.097 1.213 4.838 1.1 7.674-.295 2.828-1.392 5.636-4.018 7.696-7.578 2.06-3.56 2.936-7.303 2.733-10.449-.203-3.154-1.471-5.586-3.57-6.8-2.097-1.214-4.838-1.1-7.674.295zm-.883-1.794c3.222-1.586 6.704-1.884 9.56-.232 2.855 1.652 4.332 4.819 4.563 8.403.232 3.591-.768 7.723-2.998 11.578-2.23 3.855-5.314 6.782-8.544 8.371-3.222 1.586-6.704 1.884-9.56.232-2.854-1.652-4.332-4.819-4.563-8.403-.231-3.592.768-7.724 2.998-11.579 2.23-3.855 5.315-6.781 8.544-8.37z" fill="#101010"/>
  <ellipse cx="27.144" cy="102.287" rx="3.045" ry="9.108" transform="rotate(30.052 27.144 102.287)" fill="#101010"/>
  <path fill-rule="evenodd" clip-rule="evenodd" d="M51.79 129.84l-14.188 3.788-.774-2.899 14.188-3.787.773 2.898zM44.37 109.295l2.597 1.502-5.734 9.912 7.667-1.247.482 2.961-13.916 2.263 8.905-15.391z" fill="#101010"/>
</svg>
