<svg width="134" height="134" viewBox="0 0 134 134" fill="none" xmlns="http://www.w3.org/2000/svg">
  <path d="M34.3869 8.46422L54.0822 15.6641L68.0242 0L81.4808 16.083L101.387 9.48838L104.999 30.1449L125.536 34.3869L118.336 54.0822L134 68.0242L117.917 81.4808L124.512 101.387L103.855 104.999L99.6131 125.536L79.9178 118.336L65.9758 134L52.5192 117.917L32.6131 124.512L29.0007 103.855L8.46422 99.6131L15.6641 79.9178L0 65.9758L16.083 52.5192L9.48838 32.6131L30.1449 29.0007L34.3869 8.46422Z" fill="#12DA67"/>
  <path d="M91.5044 36.5975C94.8676 42.6338 92.9013 47.6548 84.5405 49.622C77.6552 56.5073 73.0079 54.8129 69.6447 48.7765C66.2816 42.7401 68.4486 35.1203 74.485 31.7571C80.5214 28.394 88.1413 30.5611 91.5044 36.5975Z" fill="white"/>
  <path fill-rule="evenodd" clip-rule="evenodd" d="M83.2494 31.6588C77.1609 29.9272 70.8215 33.4592 69.0899 39.5477C67.3584 45.6362 70.8903 51.9756 76.9788 53.7071L76.2554 56.251C68.7619 54.1199 64.4149 46.3176 66.5461 38.8242C68.6772 31.3308 76.4794 26.9838 83.9729 29.1149C91.4663 31.246 95.8133 39.0483 93.6821 46.5417L91.1383 45.8182C92.8699 39.7297 89.3379 33.3903 83.2494 31.6588Z" fill="#101010"/>
  <path d="M85.4289 38.8028C87.0153 41.6502 85.9931 45.2444 83.1457 46.8307C80.2984 48.4171 76.7042 47.3949 75.1178 44.5476C73.5315 41.7003 74.5537 38.1061 77.401 36.5197C80.2483 34.9333 83.8425 35.9555 85.4289 38.8028Z" fill="#101010"/>
  <path fill-rule="evenodd" clip-rule="evenodd" d="M98.3439 49.0879C89.1548 46.3408 79.4785 51.563 76.7314 60.7521L74.1974 59.9945C77.363 49.406 88.5129 43.3885 99.1015 46.554L98.3439 49.0879Z" fill="#101010"/>
  <path d="M50.0303 62.5193C53.3935 68.5557 51.4271 73.5766 43.0664 75.5439C36.1811 82.4292 31.5337 80.7348 28.1706 74.6984C24.8074 68.662 26.9745 61.0422 33.0109 57.679C39.0473 54.3159 46.6671 56.4829 50.0303 62.5193Z" fill="white"/>
  <path fill-rule="evenodd" clip-rule="evenodd" d="M41.9379 57.5806C35.8494 55.8491 29.51 59.3811 27.7784 65.4695C26.0468 71.558 29.5788 77.8974 35.6673 79.629L34.9438 82.1729C27.4504 80.0417 23.1034 72.2395 25.2345 64.7461C27.3657 57.2527 35.1679 52.9057 42.6613 55.0368C50.1548 57.1679 54.5017 64.9702 52.3706 72.4636L49.8268 71.7401C51.5583 65.6516 48.0263 59.3122 41.9379 57.5806Z" fill="#101010"/>
  <path d="M43.9572 64.7212C45.5432 67.568 44.5212 71.1616 41.6744 72.7477C38.8276 74.3338 35.2341 73.3118 33.648 70.465C32.0619 67.6182 33.0839 64.0246 35.9307 62.4385C38.7775 60.8524 42.3711 61.8744 43.9572 64.7212Z" fill="#101010"/>
  <path fill-rule="evenodd" clip-rule="evenodd" d="M56.8698 75.0098C47.6807 72.2626 38.0044 77.4849 35.2572 86.674L32.7233 85.9164C35.8889 75.3279 47.0388 69.3103 57.6274 72.4759L56.8698 75.0098Z" fill="#101010"/>
  <path d="M49.7275 90.6914L96.2365 64.7791L98.2384 68.3723C101.793 74.7522 99.5026 82.8056 93.1227 86.3601L69.7173 99.4004C63.3374 102.955 55.284 100.664 51.7295 94.2846L49.7275 90.6914Z" fill="white"/>
  <path fill-rule="evenodd" clip-rule="evenodd" d="M47.9287 90.1807L96.748 62.9811L99.3936 67.7295C103.304 74.7474 100.784 83.6061 93.7663 87.5161L70.3609 100.556C63.343 104.466 54.4842 101.947 50.5743 94.9291L47.9287 90.1807ZM51.5263 91.2038L52.8846 93.6419C56.0837 99.3837 63.3318 101.445 69.0737 98.246L92.4791 85.2058C98.2209 82.0067 100.282 74.7586 97.0832 69.0167L95.7249 66.5787L51.5263 91.2038Z" fill="#101010"/>
  <path fill-rule="evenodd" clip-rule="evenodd" d="M74.1175 77.0575L82.2589 91.6702L79.9486 92.9574L71.8071 78.3447L74.1175 77.0575Z" fill="#101010"/>
  <path fill-rule="evenodd" clip-rule="evenodd" d="M85.2 70.8827L93.3414 85.4954L91.0311 86.7826L82.8896 72.1699L85.2 70.8827Z" fill="#101010"/>
  <path fill-rule="evenodd" clip-rule="evenodd" d="M63.0599 83.2187L71.2013 97.8314L68.8909 99.1186L60.7495 84.5059L63.0599 83.2187Z" fill="#101010"/>
</svg>
