<svg width="179" height="178" fill="none" xmlns="http://www.w3.org/2000/svg">
  <path d="M119.606 74.664c15.758-7.708 22.742-26.267 16.226-42.336a17.19 17.19 0 0 0-.696-1.828l.007-.003-.108-.225-.057-.12-.007.004c-3.957-8.036-10.739-13.771-18.565-16.593-8.102-2.959-17.345-2.78-25.743 1.238l.047.099c-16.413 7.916-23.383 27.558-15.668 44.044l-.007.003c-7.701-15.76-26.261-22.745-42.33-16.229a17.04 17.04 0 0 0-1.828.696l-.01-.02-.224.108-.119.057.003.006c-8.036 3.958-13.771 10.74-16.593 18.566-2.959 8.102-2.786 17.348 1.234 25.752l.1-.047c7.916 16.414 27.558 23.384 44.044 15.669l.003.006c-15.761 7.702-22.745 26.262-16.23 42.33.197.613.425 1.227.697 1.828l-.007.003.108.225.056.119.007-.003c3.958 8.036 10.74 13.771 18.566 16.594 8.102 2.958 17.348 2.785 25.752-1.235l-.047-.099c16.414-7.917 23.384-27.559 15.669-44.044l.006-.003c7.702 15.76 26.261 22.744 42.329 16.228a16.88 16.88 0 0 0 1.829-.695l.003.006.225-.107.119-.057-.003-.007c8.036-3.958 13.771-10.739 16.593-18.565 2.959-8.103 2.779-17.345-1.238-25.743l-.099.047c-7.916-16.414-27.558-23.384-44.044-15.669ZM89.532 89.237l-.153.072-.072-.152-.073-.152.152-.072.152-.073.073.152.073.152-.152.073Z" fill="#AFA7A7"/>
  <path fill-rule="evenodd" clip-rule="evenodd" d="M144.406 126.79c11.912-5.698 16.949-19.973 11.252-31.884-5.698-11.912-19.973-16.949-31.884-11.252l-1.133-2.367c13.219-6.324 29.062-.733 35.385 12.486 6.323 13.22.733 29.062-12.487 35.385-13.219 6.323-29.062.733-35.385-12.487l2.368-1.132c5.698 11.911 19.973 16.949 31.884 11.251Z" fill="#101010"/>
  <path fill-rule="evenodd" clip-rule="evenodd" d="M139.586 116.706c6.384-3.054 9.083-10.703 6.03-17.087l2.368-1.132c3.679 7.691.426 16.908-7.265 20.587-7.691 3.678-16.908.426-20.587-7.265l2.368-1.133c3.054 6.383 10.703 9.083 17.086 6.03ZM34.422 52.37c-11.911 5.698-16.948 19.973-11.25 31.884 5.697 11.912 19.972 16.949 31.883 11.252l1.133 2.368c-13.22 6.323-29.062.732-35.385-12.487-6.323-13.22-.733-29.062 12.487-35.385 13.22-6.323 29.062-.733 35.385 12.487l-2.368 1.133C60.609 51.71 46.334 46.671 34.422 52.37ZM97.02 54.251c8.833 3.117 18.52-1.517 21.637-10.35l2.475.874c-3.599 10.2-14.785 15.55-24.985 11.952l.873-2.476ZM90.427 141.662c-8.833-3.117-18.52 1.517-21.637 10.349l-2.475-.873c3.6-10.2 14.785-15.551 24.985-11.951l-.873 2.475Z" fill="#101010"/>
  <path d="M96.075 36.66a6.214 6.214 0 1 1-7.184 10.142 6.214 6.214 0 0 1 7.184-10.142ZM65.435 129.383a6.213 6.213 0 1 1-7.184 10.141 6.213 6.213 0 1 1 7.184-10.141ZM115.357 27.437a6.213 6.213 0 1 1-7.183 10.141 6.213 6.213 0 1 1 7.183-10.141ZM84.717 120.159a6.214 6.214 0 1 1-7.184 10.142 6.214 6.214 0 0 1 7.184-10.142ZM80.375 91.696c.814 1.702 5.239 1.28 9.883-.94 4.644-2.222 7.748-5.402 6.934-7.104-.814-1.702-5.238-1.281-9.882.94-4.644 2.222-7.749 5.402-6.935 7.104Z" fill="#101010"/>
  <path d="M92.806 96.082c1.702-.814 1.281-5.238-.94-9.882-2.221-4.644-5.402-7.749-7.104-6.935-1.702.814-1.28 5.239.94 9.883 2.222 4.644 5.402 7.749 7.104 6.934Z" fill="#101010"/>
</svg>
