<svg width="91" height="89" viewBox="0 0 91 89" fill="none" xmlns="http://www.w3.org/2000/svg">
  <path fill-rule="evenodd" clip-rule="evenodd" d="M67.8595 33.1494C70.2001 26.975 67.0921 20.0723 60.9177 17.7317C54.7617 15.3982 47.8817 18.4806 45.521 24.6183C47.8221 18.458 44.7143 11.5895 38.5583 9.25595C32.3839 6.91539 25.4811 10.0233 23.1405 16.1977L23.1392 16.1972C25.4797 10.0228 22.3718 3.12008 16.1973 0.77953C10.0229 -1.56103 3.1201 1.54692 0.779535 7.72132C0.0404051 9.67114 -0.155377 11.6936 0.117174 13.6221L0.116337 13.6217L0.117948 13.6275C0.265118 14.6654 0.547934 15.676 0.954704 16.6333L21.1003 89L84.0315 48.2525C86.7847 46.9879 89.0617 44.6827 90.2205 41.6259C92.561 35.4514 89.4531 28.5487 83.2786 26.2082C77.1042 23.8676 70.2014 26.9755 67.8608 33.15L67.8595 33.1494Z" fill="#FF613F"/>
  <path d="M14.3815 29.2666C13.5923 30.8906 13.1914 31.2616 12.3659 30.8976L12.2742 30.8571L11.6877 32.1871L11.7642 32.2208C13.7668 33.1039 14.6275 32.187 15.7084 29.9429L17.4013 26.4349L19.7402 27.4663L16.7203 34.3149L18.1879 34.962L21.7942 26.7834L16.6424 24.5118L14.3815 29.2666Z" fill="#101010"/>
  <path d="M24.723 28.0748L23.2707 27.4345L19.6644 35.6131L21.1167 36.2534L22.7143 32.6304L23.7844 33.1022C22.9922 35.4371 23.9912 37.6852 26.2384 38.6761C28.6232 39.7277 31.1852 38.721 32.2637 36.2751C33.3422 33.8291 32.3967 31.2941 29.9813 30.2291C27.9176 29.3191 25.6819 29.9584 24.432 31.7992L23.3007 31.3004L24.723 28.0748ZM25.4389 33.284C26.1871 31.5871 27.8118 30.8427 29.4016 31.5438C30.9609 32.2313 31.5309 33.9617 30.7894 35.6432C30.0412 37.3401 28.408 38.0625 26.8334 37.3682C25.2741 36.6806 24.6907 34.9809 25.4389 33.284Z" fill="#101010"/>
  <path d="M33.1868 36.5543C31.9937 39.2601 33.0152 41.6643 35.4764 42.7495C37.9071 43.8213 40.4812 42.9113 41.5125 40.5723C42.5506 38.2181 41.5035 35.7479 39.1646 34.7166C38.0792 34.238 36.8032 34.1501 35.7396 34.7402C36.7706 32.8576 37.6212 32.5022 39.8301 33.1658L43.6572 34.3421L44.2436 33.0121L40.386 31.8224C37.0445 30.7872 35.6581 31.8192 34.4532 33.9721C33.9436 34.8794 33.6991 35.3925 33.1868 36.5543ZM34.5196 37.5071C35.2206 35.9173 36.8421 35.2628 38.4779 35.9841C40.0983 36.6986 40.7325 38.366 40.0382 39.9405C39.3372 41.5304 37.6918 42.1561 36.0714 41.4416C34.4662 40.7338 33.8118 39.1123 34.5196 37.5071Z" fill="#101010"/>
  <path d="M42.3109 40.7235C41.2122 43.2153 42.2085 45.718 44.6545 46.7965C47.0698 47.8615 49.6777 46.8751 50.7562 44.4291C51.8347 41.9832 50.8586 39.4347 48.3974 38.3494C45.9973 37.2911 43.4029 38.247 42.3109 40.7235ZM43.7785 41.3706C44.5267 39.6738 46.1819 38.9429 47.8177 39.6641C49.4228 40.3719 50.0234 42.1157 49.2819 43.7973C48.5337 45.4942 46.8699 46.203 45.2494 45.4885C43.6443 44.7807 43.0303 43.0675 43.7785 41.3706Z" fill="#101010"/>
  <path d="M50.0597 49.0155L52.7808 50.2153C54.5847 51.0108 56.1002 50.6382 56.7473 49.1706C57.2056 48.1311 56.8552 47.228 56.1749 46.6176C56.9518 46.5949 57.7259 46.2059 58.0966 45.3651C58.71 43.974 58.0228 42.758 56.2801 41.9896L53.666 40.8369L50.0597 49.0155ZM55.6082 43.0993C56.5407 43.5104 56.8393 44.1169 56.5293 44.8201C56.2057 45.5539 55.5345 45.7509 54.6173 45.3465L53.6083 44.9016L54.5992 42.6544L55.6082 43.0993ZM54.2628 46.5231C55.3023 46.9815 55.5911 47.6931 55.2608 48.4422C54.9372 49.1759 54.2018 49.4359 53.1775 48.9843L52.031 48.4788L53.1163 46.0175L54.2628 46.5231Z" fill="#101010"/>
  <path d="M56.8822 52.0238L59.2823 53.0821C61.2085 53.9314 62.8188 53.5094 63.567 51.8125C64.3017 50.1462 63.5052 48.6812 61.5791 47.8319L60.6465 47.4207L61.9408 44.4856L60.4885 43.8452L56.8822 52.0238ZM61.0214 49.138C62.0762 49.6031 62.4108 50.335 62.0603 51.1299C61.6761 52.0013 60.9253 52.2545 59.8552 51.7827L58.9074 51.3648L60.0736 48.7201L61.0214 49.138Z" fill="#101010"/>
  <path d="M68.2537 47.908L68.587 47.1521L66.1156 46.0624L68.4704 45.0009C69.2319 44.6773 69.7586 44.311 70.0807 43.5806C70.5001 42.6294 70.2351 41.6199 69.0801 41.1106C67.7892 40.5414 66.9621 41.3129 66.6148 42.1234L67.4387 42.4867C67.6344 42.0658 68.0259 41.5689 68.7393 41.8835C69.3253 42.1419 69.4466 42.6721 69.1994 43.2326C68.986 43.7167 68.6004 43.993 68.015 44.2624L65.0587 45.6065L64.7292 46.3539L68.2537 47.908Z" fill="#101010"/>
  <path fill-rule="evenodd" clip-rule="evenodd" d="M68.3152 48.0657L64.5715 46.415L64.9678 45.5163L67.9651 44.1535C67.9652 44.1535 67.965 44.1536 67.9651 44.1535C68.5413 43.8884 68.8944 43.628 69.0901 43.1842C69.2056 42.9222 69.2295 42.6799 69.1676 42.48C69.1068 42.2833 68.9577 42.1104 68.6912 41.9929C68.3687 41.8507 68.1354 41.8957 67.9603 42.0096C67.7765 42.1291 67.6416 42.3346 67.5474 42.5371L67.498 42.6435L66.4583 42.1851L66.505 42.0762C66.6858 41.6543 66.9947 41.2338 67.4368 40.9942C67.8842 40.7517 68.4529 40.703 69.1286 41.001C69.7307 41.2665 70.1124 41.6682 70.2836 42.1389C70.4543 42.6082 70.4101 43.1307 70.1905 43.6288C69.8512 44.3983 69.2932 44.7812 68.5187 45.1105L66.4098 46.0611L68.7451 47.0908L68.3152 48.0657ZM66.1158 46.0623L68.4707 45.0008C69.2321 44.6772 69.7588 44.3109 70.0809 43.5805C70.5003 42.6293 70.2354 41.6198 69.0803 41.1105C67.8474 40.5669 67.0376 41.2461 66.6648 42.0144C66.6552 42.0343 66.6458 42.0542 66.6368 42.0741C66.6293 42.0905 66.6221 42.1069 66.6151 42.1233L67.4389 42.4866C67.6346 42.0657 68.0261 41.5688 68.7395 41.8834C69.3256 42.1418 69.4468 42.672 69.1996 43.2325C68.9862 43.7166 68.6006 43.9929 68.0152 44.2623L65.0589 45.6064L64.7294 46.3538L68.2539 47.9079L68.5872 47.152L66.1158 46.0623Z" fill="#101010"/>
</svg>
