<svg width="204" height="205" fill="none" xmlns="http://www.w3.org/2000/svg">
  <path d="M169.94 68.618c18.635 37.61 3.252 83.206-34.359 101.84-37.61 18.635-83.206 3.252-101.84-34.358C15.106 98.49 30.489 52.894 68.1 34.26c37.61-18.635 83.206-3.252 101.84 34.358Z" fill="#5452FF"/>
  <path d="M169.94 68.618c18.635 37.61 3.252 83.206-34.359 101.84-37.61 18.635-83.206 3.252-101.84-34.358C15.106 98.49 30.489 52.894 68.1 34.26c37.61-18.635 83.206-3.252 101.84 34.358Z" fill="#FF613F"/>
  <path fill="#101010" stroke="#101010" stroke-width="3" d="m59.655 81.41 51.075-25.306 9.323 18.817-51.075 25.306z"/>
  <path fill="#FF613F" d="M65.636 96.86 119.4 70.224l7.103 14.337-53.763 26.638z"/>
  <path d="m78.755 55.764 57.274-8.289s-29.142 20.02-41.292 40.547c-23.692-2.77-57.274 8.289-57.274 8.289l41.292-40.547Z" fill="#fff"/>
  <path fill-rule="evenodd" clip-rule="evenodd" d="M42.837 93.137c3.53-.994 8.436-2.277 14.066-3.476 11.094-2.362 25.145-4.43 37.044-3.234 6.256-10.192 16.413-20.118 25.014-27.513a226.929 226.929 0 0 1 11.287-9.086l-50.793 7.35-36.618 35.959Zm-6.425 2.104 41.292-40.547.836-.414 57.274-8.289 1.064 2.721-.019.013-.06.041-.112.078-.128.09c-.212.149-.527.37-.933.662-.812.58-1.989 1.436-3.439 2.527a224.19 224.19 0 0 0-11.27 9.065c-8.775 7.545-18.943 17.552-24.89 27.598l-1.464.726c-11.595-1.355-25.716.673-37.035 3.083a224.135 224.135 0 0 0-14.04 3.475c-1.747.493-3.14.91-4.094 1.205a111.732 111.732 0 0 0-1.371.431l-.07.023-.02.006-1.52-2.494Z" fill="#101010"/>
  <path fill-rule="evenodd" clip-rule="evenodd" d="M76.055 92.256c-14.308 7.09-20.205 24.271-13.225 38.359 6.98 14.088 24.222 19.805 38.53 12.716l1.332 2.688c-15.76 7.809-34.819 1.532-42.55-14.072-7.732-15.604-1.18-34.57 14.581-42.379 6.189-3.066 12.81-4.212 19.187-3.215 3.07-5.677 7.993-10.251 14.182-13.318 15.76-7.809 34.819-1.532 42.55 14.072 7.732 15.605 1.18 34.57-14.581 42.379l-1.332-2.688c14.308-7.089 20.205-24.271 13.225-38.359-6.98-14.088-24.222-19.805-38.53-12.716-6.023 2.984-10.644 7.469-13.34 12.96l-.508 1.033-1.128-.222c-6.003-1.181-12.37-.222-18.393 2.762Z" fill="#101010"/>
  <path d="m106.28 111.319-1.405 17.437 16.129-7.992-14.724-9.445Z" fill="#101010"/>
  <path d="M105.392 109.527c4.904 9.898.856 21.897-9.042 26.8-9.897 4.904-21.896.856-26.8-9.041-4.904-9.898-.855-21.897 9.042-26.801 9.897-4.903 21.896-.855 26.8 9.042Z" fill="#fff"/>
  <path d="M95.536 114.411a9 9 0 1 1-12.06-4.069 9 9 0 0 1 12.06 4.069Z" fill="#101010"/>
  <path d="M141.234 91.769c4.904 9.897.856 21.896-9.042 26.8-9.897 4.904-21.896.856-26.8-9.042-4.904-9.897-.856-21.896 9.042-26.8 9.897-4.904 21.896-.856 26.8 9.042Z" fill="#fff"/>
  <path d="M131.377 96.653a9 9 0 1 1-16.13 7.991 9 9 0 0 1 16.13-7.992ZM118.267 135.513l-13.392-6.757 16.129-7.992-2.737 14.749Z" fill="#101010"/>
</svg>
