<svg width="101" height="101" viewBox="0 0 101 101" fill="none" xmlns="http://www.w3.org/2000/svg">
  <path d="M88.236 61.801c-6.511 21.11-28.903 32.945-50.013 26.434-21.11-6.51-32.945-28.901-26.434-50.012C18.299 17.113 40.69 5.278 61.8 11.79c21.11 6.51 32.945 28.902 26.434 50.012Z" fill="#5452FF"/>
  <path d="M88.236 61.801c-6.511 21.11-28.903 32.945-50.013 26.434-21.11-6.51-32.945-28.901-26.434-50.012C18.299 17.113 40.69 5.278 61.8 11.79c21.11 6.51 32.945 28.902 26.434 50.012Z" fill="#5452FF"/>
  <path fill-rule="evenodd" clip-rule="evenodd" d="M51.647 71.787c3.764-4.169 7.334-10.586 9.707-18.277 2.372-7.69 3.035-15.004 2.274-20.569-.788-5.754-2.939-8.827-5.37-9.577-2.43-.75-5.938.578-9.83 4.89-3.764 4.168-7.334 10.585-9.707 18.276-2.372 7.691-3.035 15.004-2.274 20.57.788 5.754 2.939 8.826 5.37 9.576 2.43.75 5.938-.578 9.83-4.889Zm-10.451 6.9c7.36 2.271 17.286-8.724 22.17-24.556 4.883-15.833 2.874-30.508-4.487-32.778-7.36-2.27-17.286 8.724-22.17 24.557-4.883 15.832-2.874 30.508 4.487 32.778Z" fill="#101010"/>
  <ellipse cx="50.013" cy="50.013" rx="12.713" ry="29.827" transform="rotate(77.14 50.013 50.013)" fill="#fff"/>
  <path d="m52.21 43.53-.363-.112a6.84 6.84 0 0 1-8.317 4.396l-.112.363a6.84 6.84 0 0 1 4.396 8.318l.363.111a6.84 6.84 0 0 1 8.317-4.396l.112-.363a6.842 6.842 0 0 1-4.396-8.317Z" fill="#101010"/>
  <path fill-rule="evenodd" clip-rule="evenodd" d="M30.325 40.742c1.677 5.342 5.398 11.623 10.836 17.484 5.438 5.86 11.424 10.04 16.626 12.111 5.366 2.137 9.152 1.787 11.082-.004 1.93-1.79 2.56-5.54.83-11.05C68.023 53.94 64.303 47.66 58.865 41.8c-5.438-5.86-11.424-10.04-16.627-12.111-5.365-2.137-9.151-1.787-11.081.003-1.93 1.791-2.561 5.54-.831 11.05Zm-.601-12.594c-5.74 5.327-1.311 19.434 9.894 31.51C50.823 71.733 64.56 77.203 70.301 71.876c5.74-5.327 1.31-19.434-9.894-31.509-11.205-12.075-24.942-17.546-30.683-12.219Z" fill="#101010"/>
</svg>
