<svg width="76" height="76" viewBox="0 0 76 76" fill="none" xmlns="http://www.w3.org/2000/svg">
<path d="M65.5527 47.8001C60.2039 63.1895 43.3923 71.329 28.0029 65.9801C12.6135 60.6313 4.47408 43.8197 9.82291 28.4303C15.1717 13.041 31.9834 4.90151 47.3727 10.2503C62.7621 15.5992 70.9015 32.4108 65.5527 47.8001Z" fill="#12DA67"/>
<path d="M65.5527 47.8001C60.2039 63.1895 43.3923 71.329 28.0029 65.9801C12.6135 60.6313 4.47408 43.8197 9.82291 28.4303C15.1717 13.041 31.9834 4.90151 47.3727 10.2503C62.7621 15.5992 70.9015 32.4108 65.5527 47.8001Z" fill="#12DA67"/>
<path d="M34.278 31.3771C33.7728 38.6577 27.5392 42.654 26.521 42.5833C25.5027 42.5127 19.8808 37.6938 20.386 30.4132C20.8912 23.1326 28.237 17.8521 28.237 17.8521C28.237 17.8521 34.7831 24.0965 34.278 31.3771Z" fill="#12DA67"/>
<path fill-rule="evenodd" clip-rule="evenodd" d="M29.735 38.9484C31.3535 37.1897 32.8864 34.6093 33.1163 31.2965C33.344 28.0147 31.979 24.8883 30.4646 22.5098C29.7154 21.3329 28.9495 20.3708 28.3719 19.7041C28.286 19.6049 28.2043 19.5125 28.1277 19.427C28.04 19.5011 27.9464 19.5814 27.8476 19.6677C27.1834 20.2482 26.2921 21.0954 25.3874 22.1575C23.559 24.3041 21.7754 27.212 21.5477 30.4938C21.3178 33.8066 22.4797 36.574 23.8397 38.5393C24.5197 39.5218 25.2371 40.2855 25.8255 40.7967C26.1208 41.0533 26.3694 41.2339 26.5511 41.3448C26.5706 41.3568 26.5885 41.3673 26.6047 41.3767C26.6221 41.3697 26.6412 41.3617 26.6622 41.3526C26.8574 41.2678 27.1286 41.1232 27.4565 40.9099C28.1099 40.4849 28.9259 39.8276 29.735 38.9484ZM26.521 42.5833C27.5392 42.654 33.7728 38.6577 34.278 31.3771C34.7831 24.0965 28.237 17.8521 28.237 17.8521C28.237 17.8521 20.8912 23.1326 20.386 30.4132C19.8808 37.6938 25.5027 42.5127 26.521 42.5833Z" fill="#101010"/>
<path fill-rule="evenodd" clip-rule="evenodd" d="M28.6453 25.7681C29.9491 33.8642 27.4464 40.7973 25.9981 43.3011L24.9901 42.7181C26.3255 40.4093 28.7504 33.7453 27.4956 25.9532L28.6453 25.7681Z" fill="#101010"/>
<path d="M47.2893 50.0514C38.0299 56.4818 25.1378 49.8823 25.1378 49.8823C25.1378 49.8823 23.4567 35.4971 32.7161 29.0668C41.9755 22.6364 56.5908 28.0392 56.5908 28.0392C56.5908 28.0392 56.5487 43.6211 47.2893 50.0514Z" fill="white"/>
<path fill-rule="evenodd" clip-rule="evenodd" d="M57.1728 28.0403L56.5906 28.0387L56.7924 27.4926L57.1739 27.6336L57.1728 28.0403ZM55.9986 28.4498C55.9961 28.5227 55.993 28.6047 55.989 28.6953C55.9701 29.1252 55.9329 29.749 55.8597 30.5187C55.713 32.0591 55.4224 34.1782 54.847 36.493C53.6908 41.1454 51.412 46.4788 46.957 49.5727C42.4888 52.6757 37.3843 53.0187 33.2302 52.3792C31.1555 52.0598 29.334 51.4973 27.973 50.9248C27.2922 50.6384 26.7342 50.3527 26.3215 50.0987C25.8865 49.831 25.6757 49.6361 25.6158 49.5498L24.6593 50.214C24.8664 50.5122 25.2588 50.812 25.7111 51.0904C26.1856 51.3824 26.799 51.6942 27.5215 51.9982C28.9673 52.6063 30.8808 53.1957 33.053 53.5301C37.3928 54.1982 42.83 53.8566 47.6212 50.5292C52.4255 47.1928 54.7975 41.5201 55.9771 36.7739C56.5697 34.3895 56.8683 32.2112 57.0189 30.6291C57.0943 29.8375 57.1327 29.1937 57.1523 28.7463C57.1621 28.5226 57.1673 28.3479 57.1699 28.2282C57.1712 28.1684 57.172 28.1223 57.1723 28.0907L57.1727 28.0544L57.1728 28.0445L57.1728 28.0408C57.1728 28.0405 57.1728 28.0403 56.5906 28.0387C56.7924 27.4926 56.7922 27.4925 56.7919 27.4924L56.7885 27.4912L56.7792 27.4878L56.745 27.4754C56.7153 27.4648 56.6719 27.4493 56.6153 27.4297C56.5023 27.3904 56.3368 27.3341 56.1237 27.2652C55.6977 27.1273 55.081 26.9385 54.313 26.7326C52.7779 26.3212 50.6325 25.8401 48.1912 25.5626C43.3319 25.0103 37.1881 25.2517 32.3838 28.5881C25.4006 33.4377 23.8775 41.7796 23.9748 46.5081L25.1391 46.4842C25.0454 41.9326 26.5275 34.0729 33.048 29.5446C37.5031 26.4507 43.2965 26.1782 48.0597 26.7197C50.4297 26.9891 52.5168 27.4568 54.0115 27.8574C54.7583 28.0576 55.3558 28.2406 55.7652 28.3731C55.8515 28.401 55.9294 28.4267 55.9986 28.4498Z" fill="#101010"/>
<path fill-rule="evenodd" clip-rule="evenodd" d="M38.3042 33.3613C37.2828 39.0263 35.3194 44.0318 34.4541 45.8488L33.4028 45.3481C34.2302 43.6107 36.1576 38.7039 37.1582 33.1547L38.3042 33.3613Z" fill="#101010"/>
<path fill-rule="evenodd" clip-rule="evenodd" d="M39.5507 41.1592C42.8886 40.428 46.1327 40.6262 47.3688 40.8223L47.1863 41.9724C46.0665 41.7948 42.9715 41.602 39.7999 42.2967L39.5507 41.1592Z" fill="#101010"/>
<path fill-rule="evenodd" clip-rule="evenodd" d="M51.0873 32.0277C39.8029 45.4027 25.5892 50.8359 19.8253 51.8856L19.6167 50.74C25.1436 49.7334 39.1055 44.4235 50.1973 31.2768L51.0873 32.0277Z" fill="#101010"/>
</svg>
