<svg width="121" height="121" viewBox="0 0 121 121" fill="none" xmlns="http://www.w3.org/2000/svg">
  <path d="M106.185 74.582c-7.95 25.29-34.897 39.345-60.186 31.395C20.709 98.026 6.654 71.08 14.604 45.79c7.95-25.289 34.897-39.345 60.186-31.394 25.29 7.95 39.346 34.897 31.395 60.186Z" fill="#FF613F"/>
  <path d="M106.185 74.582c-7.95 25.29-34.897 39.345-60.186 31.395C20.709 98.026 6.654 71.08 14.604 45.79c7.95-25.289 34.897-39.345 60.186-31.394 25.29 7.95 39.346 34.897 31.395 60.186Z" fill="#12DA67"/>
  <path d="M55.374 58.256c-6.7-6.108-4.777-4.812-10.484.18-3.54 4.592-12.887 10.844-14.73 14.177-1.841 3.333-1.69 6.64-.41 8.184 10.002 3.634 34.067 11.884 40.669 12.786 6.602.902 7.062-1.93 7.414-4.101l-2.947-17.478c-.63-1.502-1.53-10.462-2.487-11.044-6.244-3.797-9.821 3.864-17.025-2.704Z" fill="#fff"/>
  <path fill-rule="evenodd" clip-rule="evenodd" d="M61.347 57.66c-1.458-.351-2.989-1.188-4.683-2.732l1.277-1.4c1.526 1.392 2.782 2.032 3.85 2.29 1.061.255 2.028.153 3.03-.096.487-.121.968-.272 1.48-.434l.073-.023c.53-.166 1.093-.343 1.676-.478 1.181-.276 2.48-.396 3.939.017l-.516 1.823c-1.051-.298-2.005-.225-2.993.005-.503.117-1.002.272-1.537.44l-.088.028c-.5.157-1.031.325-1.577.46-1.172.292-2.468.451-3.931.1Z" fill="#101010"/>
  <path fill-rule="evenodd" clip-rule="evenodd" d="m57.615 44.81 2.013-6.403 1.807.569-2.154 6.852-28.768 28.419c-2.2 2.174-1.297 5.909 1.654 6.837L72.19 93.666c2.951.928 5.83-1.618 5.268-4.66l-7.33-39.769 2.154-6.852 1.807.569-2.013 6.403 7.246 39.305c.82 4.446-3.387 8.167-7.7 6.811L31.599 82.891c-4.313-1.356-5.634-6.815-2.417-9.992L57.615 44.81ZM58.983 29.93l19.883 6.25-1.806 5.744-9.594-3.016.569-1.808 7.786 2.448.67-2.129-16.269-5.114-1.041 3.314-1.808-.569 1.61-5.12Z" fill="#101010"/>
  <path d="M51.37 76.992a5.863 5.863 0 1 1-11.715-.502 5.863 5.863 0 0 1 11.715.502Z" fill="#101010"/>
  <path fill-rule="evenodd" clip-rule="evenodd" d="M60.743 84.332a5.976 5.976 0 1 0 3.585-11.403 5.976 5.976 0 0 0-3.585 11.403Zm-.568 1.807a7.87 7.87 0 1 0 4.721-15.017 7.87 7.87 0 0 0-4.721 15.017ZM52.788 68.463a2.098 2.098 0 1 0 1.26-4.004 2.098 2.098 0 0 0-1.26 4.004Zm-.568 1.807a3.993 3.993 0 1 0 2.395-7.618 3.993 3.993 0 0 0-2.395 7.618Z" fill="#101010"/>
</svg>
