<svg xmlns="http://www.w3.org/2000/svg" width="432" height="296" viewBox="0 0 432 296" fill="none"><g clip-path="url(#a)"><ellipse cx="205.5" cy="114.576" fill="#fff" rx="205.5" ry="114.576" transform="rotate(-10.855 250.588 2.962) skewX(.05)"/><rect width="232.977" height="88.323" fill="#000" rx="44.162" transform="matrix(.99101 -.1281 .12327 .99312 154.527 92.623)"/><path fill="#101010" d="M191.364 104.057c9.383 39.032-6.335 76.413-35.108 83.494-28.772 7.081-59.704-18.819-69.087-57.851-9.383-39.03 6.336-76.412 35.108-83.493 28.773-7.081 59.704 18.82 69.087 57.85Z"/><path fill="#fff" fill-rule="evenodd" d="m141.197 156.432.206 2.308-1.3.122-37.855-52.072 3.725-2.745 36.288 49.916c.744-.11 1.764-.281 2.937-.535 2.502-.542 5.573-1.433 8.153-2.825 2.573-1.39 4.994-3.481 6.815-5.293a44.713 44.713 0 0 0 2.056-2.188L140.8 85.118l4.323-1.628 22.342 60.495-.807 1.026-1.806-1.435 1.806 1.435-.001.002-.006.007-.015.018-.048.061-.177.217c-.152.184-.372.446-.652.768a48.42 48.42 0 0 1-2.357 2.515c-1.961 1.952-4.747 4.393-7.882 6.086-3.127 1.688-6.675 2.691-9.367 3.274a49.29 49.29 0 0 1-3.371.609c-.42.06-.757.103-.992.13l-.276.031-.077.008-.022.002-.007.001h-.003s-.002 0-.208-2.308Z" clip-rule="evenodd"/><path fill="#fff" fill-rule="evenodd" d="M106.297 104.584c-.013-.093-.018-.414.306-1.103.44-.936 1.32-2.151 2.691-3.561 2.721-2.8 7.006-5.986 12.221-8.82 5.215-2.834 10.211-4.691 14.027-5.444 1.922-.38 3.413-.452 4.43-.308.913.129 1.104.37 1.104.37s-.006-.008-.015-.025l4.059-2.206c-.957-1.791-2.824-2.493-4.493-2.729-1.725-.243-3.778-.08-5.957.35-4.387.866-9.827 2.923-15.335 5.916-5.507 2.993-10.202 6.443-13.331 9.662-1.554 1.598-2.818 3.238-3.565 4.824-.722 1.534-1.166 3.492-.208 5.283.958 1.791 2.824 2.493 4.493 2.729 1.725.243 3.778.08 5.958-.35 4.387-.866 9.826-2.923 15.334-5.916l-2.18-4.076c-5.215 2.834-10.21 4.691-14.027 5.444-1.922.379-3.412.452-4.43.308-.75-.106-1.012-.287-1.082-.348Z" clip-rule="evenodd"/><path fill="#fff" fill-rule="evenodd" d="m132.036 75.012 13.983-13.774-3.221-3.308-16.154 15.912 25.777 67.565 4.306-1.675-24.691-64.72Z" clip-rule="evenodd"/><path fill="#fff" d="m211.086 98.486-6.379.84 1.589 12.578c-10.608 1.942-17.891 10.217-16.515 21.114 1.385 10.965 10.2 16.986 21.212 16.084l1.41 11.167 6.379-.839-1.41-11.167c10.541-1.933 17.89-10.217 16.514-21.114-1.385-10.964-10.2-16.985-21.212-16.084l-1.588-12.579Zm-14.859 33.685c-.943-7.467 3.523-13.183 10.799-14.482l3.237 25.629c-7.294.617-13.093-3.681-14.036-11.147Zm31.213-4.174c.935 7.399-3.464 13.107-10.799 14.482l-3.236-25.629c7.227-.609 13.092 3.68 14.035 11.147ZM246.822 139.261c1.933 1.798 6.478 4.277 12.723 3.456 11.212-1.475 17.302-10.55 15.976-21.044-1.393-11.032-9.73-17.594-20.406-16.19-6.311.83-10.1 4.337-11.892 7.445l-.654-5.179-6.11.803 6.031 47.76 6.379-.839-2.047-16.212Zm-1.976-13.485c-.943-7.467 3.27-13.56 10.521-14.514 7.185-.944 12.774 3.859 13.717 11.326.952 7.534-3.212 13.484-10.463 14.438-7.184.944-12.824-3.716-13.775-11.25ZM313.979 118.598c-.002-1.094-.147-2.237-.231-2.91-1.502-10.812-9.276-16.697-19.818-15.31-10.273 1.351-16.539 10.108-15.162 21.005 1.418 11.233 9.721 17.527 20.532 16.105 8.46-1.113 13.161-6.586 14.814-12.411l-5.224-1.912c-1.748 4.538-4.605 7.855-10.313 8.605-6.781.892-11.672-2.704-13-9.436l28.402-3.736Zm-19.419-12.696c6.244-.821 11.101 2.507 12.252 8.373l-21.688 2.853c.042-6.16 3.594-10.457 9.436-11.226ZM361.155 128.737l-4.545-35.988-6.446.848 3.806 30.136-10.542 1.386-3.805-30.135-6.446.847 3.806 30.136-10.542 1.386-3.806-30.135-6.378.839 4.545 35.987 40.353-5.307Z"/><path fill="#12DA67" d="M53.347 122.748C27.611 125.773 4.295 107.362 1.27 81.626-1.755 55.89 16.655 32.574 42.391 29.55 68.127 26.523 91.443 44.934 94.47 70.67c3.025 25.736-15.385 49.052-41.122 52.078Z"/><path fill="#101010" fill-rule="evenodd" d="M17.926 82.29c1.185 5.855 4.66 11.926 10.19 16.776 5.531 4.85 12.004 7.503 17.964 7.913 5.96.41 11.334-1.416 14.855-5.431a15.048 15.048 0 0 0 1.91-2.74l2.062 1.12a17.368 17.368 0 0 1-2.208 3.167c-4.106 4.683-10.261 6.674-16.78 6.225-6.517-.449-13.467-3.332-19.35-8.49-5.881-5.158-9.647-11.672-10.943-18.075-1.296-6.404-.125-12.767 3.981-17.45 4.106-4.682 10.262-6.673 16.78-6.224 6.517.448 13.468 3.331 19.35 8.49l-1.547 1.764c-5.531-4.85-12.004-7.503-17.964-7.913-5.959-.41-11.334 1.416-14.855 5.43-3.52 4.016-4.63 9.583-3.445 15.437Z" clip-rule="evenodd"/><path fill="#101010" fill-rule="evenodd" d="M49.386 48.136c-5.053 1.716-8.796 5.98-10.698 11.637l-2.224-.748c2.08-6.189 6.274-11.11 12.168-13.11 5.898-2.003 12.224-.65 17.645 2.998 5.42 3.648 9.997 9.62 12.512 17.027 2.515 7.409 2.519 14.933.44 21.126-2.08 6.194-6.275 11.119-12.172 13.121-5.898 2.002-12.224.649-17.645-3-5.42-3.646-9.998-9.618-12.512-17.026l2.222-.755c2.364 6.966 6.644 12.5 11.6 15.835 4.956 3.335 10.524 4.44 15.58 2.724 5.057-1.716 8.8-5.984 10.702-11.646 1.901-5.663 1.928-12.659-.437-19.624-2.364-6.966-6.644-12.5-11.6-15.835-4.956-3.334-10.524-4.44-15.58-2.724ZM32.264 45.337l2.276 10.265-2.29.508-2.276-10.266 2.29-.507Z" clip-rule="evenodd"/><ellipse cx="47.403" cy="82.332" fill="#101010" rx="1.93" ry="4.847" transform="rotate(-33.751 47.403 82.332)"/><ellipse cx="53.759" cy="78.08" fill="#101010" rx="1.93" ry="4.847" transform="rotate(-33.751 53.759 78.08)"/><path fill="#FECD1A" d="M365.645 233.28c-25.85-1.811-45.338-24.235-43.528-50.085 1.811-25.85 24.235-45.338 50.085-43.527 25.85 1.81 45.338 24.234 43.527 50.084-1.81 25.851-24.234 45.338-50.084 43.528Z"/><path fill="#101010" fill-rule="evenodd" d="M361.775 163.981c-5.21 2.048-10.42 6.299-14.341 12.305-4.208 6.444-6.451 12.366-8.006 19.029l-1.907-.478c1.6-6.853 3.924-13 8.279-19.668 4.116-6.304 9.629-10.841 15.257-13.053 5.624-2.21 11.456-2.123 16.045 1.014 6.043 4.131 8.129 12.283 6.568 20.801l-1.926-.383c1.48-8.079-.586-15.249-5.724-18.76-3.91-2.673-9.032-2.855-14.245-.807Z" clip-rule="evenodd"/><path fill="#101010" fill-rule="evenodd" d="M348.001 212.022c2.137 1.485 4.632 2.217 7.313 2.249l-.008 1.999c-3.023-.037-5.907-.867-8.4-2.599-6.011-4.177-8.033-12.345-6.407-20.851l1.924.398c-1.543 8.068.468 15.253 5.578 18.804Zm29.981-13.329c3.433-5.635 5.411-10.975 6.846-16.915l1.903.493c-1.474 6.102-3.522 11.643-7.082 17.486l-1.667-1.064ZM356.402 169.446l1.878-.627 1.771 5.303 5.303-1.771.627 1.878-7.181 2.398-2.398-7.181ZM356.953 182.986l1.877-.627 1.771 5.303 5.304-1.771.627 1.878-7.181 2.398-2.398-7.181ZM346.746 191.982l1.877-.627 1.771 5.304 5.304-1.772.627 1.878-7.181 2.398-2.398-7.181ZM370.945 185.176l1.877-.627 1.772 5.304 5.303-1.771.627 1.877-7.181 2.398-2.398-7.181ZM380.916 153.562l-.975.171-.434-.889 1.182-.578.227 1.296Zm-.207 6.866c.326-1.591.411-3.069.403-4.234a20.173 20.173 0 0 0-.1-1.888 13.262 13.262 0 0 0-.064-.535l-.022-.148-.007-.042-.002-.012-.001-.004v-.003l-.975.171-.434-.889h-.001l-.002.001-.003.002-.012.005a20.389 20.389 0 0 0-2.228 1.378 20.6 20.6 0 0 0-3.191 2.812c-.942-2.003-2.215-3.633-3.324-4.817a20.807 20.807 0 0 0-1.808-1.717 16.267 16.267 0 0 0-.77-.606l-.013-.01-.005-.003-.002-.001-.569.809.569-.81-1.077-.756-.428 1.244.936.322-.936-.321-.001.003-.002.005-.005.016a16.806 16.806 0 0 0-.273.963 20.977 20.977 0 0 0-.459 2.501c-.251 2.055-.289 4.835.618 7.632l1.883-.611c-.788-2.428-.767-4.894-.537-6.78.078-.635.179-1.198.278-1.664.341.308.737.689 1.156 1.137 1.274 1.361 2.726 3.304 3.535 5.685l.603 1.773 1.126-1.497c1.227-1.633 2.685-2.868 3.847-3.698.248-.178.482-.336.696-.475.013.255.022.537.024.842.01 1.428-.133 3.334-.735 5.286l-.551 1.79 1.789-.553c2.403-.743 4.828-.709 6.678-.476.608.076 1.149.173 1.599.269-.319.354-.716.766-1.184 1.201-1.391 1.294-3.376 2.758-5.804 3.546l.611 1.883c2.797-.907 5.026-2.57 6.541-3.98a20.927 20.927 0 0 0 1.756-1.84c.201-.24.357-.437.463-.576.053-.069.094-.125.123-.164l.033-.046.01-.014.004-.006h.001l-.81-.57.81.569.757-1.077-1.245-.428-.322.936.321-.936-.002-.001-.005-.001-.016-.006-.053-.017a15.443 15.443 0 0 0-.89-.25 20.825 20.825 0 0 0-2.451-.456c-1.61-.202-3.676-.276-5.851.137ZM361.77 199.985c-.864.184-1.216.5-1.344.761-.127.262-.159.734.229 1.528.381.78 1.097 1.712 2.144 2.732 2.086 2.032 5.322 4.256 9.218 6.154 3.896 1.899 7.642 3.077 10.528 3.468 1.449.196 2.624.185 3.473.005.864-.184 1.216-.5 1.344-.762l.001-.003c.248-.503.203-1.179-.384-2.138-.584-.955-1.601-2.002-2.889-3.06-2.565-2.105-5.966-4.06-8.32-5.213-3.896-1.899-7.641-3.076-10.527-3.467-1.449-.196-2.624-.185-3.473-.005Zm3.738-1.956c3.146.425 7.097 1.684 11.13 3.649l.002.001c2.433 1.192 5.981 3.225 8.706 5.461 1.356 1.114 2.569 2.326 3.322 3.558.75 1.227 1.149 2.665.472 4.042-.511 1.047-1.57 1.586-2.711 1.829-1.156.246-2.582.232-4.149.02-3.147-.426-7.097-1.684-11.13-3.649s-7.458-4.301-9.733-6.517c-1.133-1.104-2.021-2.218-2.541-3.28-.512-1.049-.74-2.216-.229-3.264.51-1.047 1.57-1.587 2.711-1.83 1.157-.246 2.582-.232 4.15-.02Z" clip-rule="evenodd"/><ellipse cx="373.964" cy="206.768" fill="#101010" rx="5.904" ry="1.782" transform="rotate(23.685 373.964 206.768)"/><path fill="#101010" fill-rule="evenodd" d="M360.158 201.031a16.596 16.596 0 0 0-2.257 5.813c-1.61 8.701 3.821 16.921 12.019 18.438 6.907 1.279 11.957-1.073 15.094-5.655l1.634 1.119c-3.608 5.267-9.46 7.895-17.088 6.483-9.358-1.733-15.399-11.056-13.605-20.746a18.577 18.577 0 0 1 2.526-6.504l1.677 1.052Z" clip-rule="evenodd"/><path fill="#101010" stroke="#fff" stroke-width="2" d="M1.133.847h153.259v45H1.133z" transform="rotate(-8.193 1816.676 -1047.434) skewX(.038)"/><path fill="#fff" d="m190.857 266.181 1.616 11.167-2.495.36-2.144-14.826 3.852-.555 5.931 10.688 2.688-11.929 3.742-.539 2.144 14.826-2.605.375-1.627-11.251-2.752 11.882-2.355.339-5.995-10.537Zm16.69 4.159a5.158 5.158 0 0 1 .079-1.991 4.338 4.338 0 0 1 .801-1.7c.38-.507.857-.925 1.432-1.253a5.75 5.75 0 0 1 1.998-.655c.758-.109 1.411-.09 1.961.057.547.129.967.294 1.26.497l-.18-1.247c-.139-.96-.468-1.667-.986-2.121-.5-.456-1.193-.62-2.08-.492-.905.13-1.508.462-1.808.995a2.878 2.878 0 0 0-.318 1.715l-2.466.355a5.236 5.236 0 0 1 .044-1.845 3.981 3.981 0 0 1 .738-1.549c.347-.465.81-.852 1.388-1.161.596-.313 1.31-.528 2.141-.648.942-.136 1.755-.121 2.44.045.702.162 1.291.455 1.767.877.492.4.88.929 1.163 1.586.3.636.508 1.36.626 2.173l1.383 9.56-2.328.336-.169-1.164a4.018 4.018 0 0 1-1.213 1.193c-.499.336-1.145.561-1.94.675a5.77 5.77 0 0 1-2.015-.049 5.173 5.173 0 0 1-1.752-.766 4.672 4.672 0 0 1-1.278-1.4 5.465 5.465 0 0 1-.688-2.023Zm2.549-.367c.115.795.461 1.424 1.037 1.888.595.461 1.308.632 2.14.512.813-.117 1.448-.482 1.907-1.095.458-.613.63-1.317.515-2.111-.118-.813-.482-1.439-1.093-1.88-.61-.44-1.331-.6-2.163-.48-.831.12-1.458.483-1.879 1.091-.424.589-.579 1.281-.464 2.075Zm15.53-5.489 7.438 7.019-3.243.467-6.604-6.149 1.006 6.955-2.633.379-2.145-14.825 2.633-.379.906 6.262 4.526-7.045 3.187-.459-5.071 7.775Zm15.412 3.693a4.937 4.937 0 0 0 1.307-.358c.39-.17.73-.36 1.02-.572.29-.211.542-.427.756-.646.229-.24.423-.466.581-.678l1.788 1.412c-.184.29-.421.608-.711.951a6.715 6.715 0 0 1-1.08.948 6.692 6.692 0 0 1-1.467.805 6.914 6.914 0 0 1-1.877.525c-1.145.165-2.217.121-3.215-.131a7.234 7.234 0 0 1-2.616-1.264 7.39 7.39 0 0 1-1.901-2.188 8.763 8.763 0 0 1-.968-2.972c-.157-1.09-.118-2.124.118-3.101a7.696 7.696 0 0 1 1.227-2.666 7.32 7.32 0 0 1 2.174-1.982c.868-.521 1.847-.86 2.937-1.017a8.172 8.172 0 0 1 2-.061 6.688 6.688 0 0 1 1.636.358c.494.155.929.357 1.304.604.373.23.679.459.92.688l-1.395 1.898c-.449-.369-1.012-.674-1.688-.916-.661-.264-1.462-.327-2.404-.192a4.904 4.904 0 0 0-1.964.707 4.66 4.66 0 0 0-1.391 1.332 5.032 5.032 0 0 0-.757 1.807 6.485 6.485 0 0 0-.028 2.154c.115.794.339 1.497.673 2.109.352.61.783 1.113 1.293 1.511.511.398 1.08.684 1.709.858a5.382 5.382 0 0 0 2.019.077Zm9.45-3.681 3.98-11.21 2.633-.379 2.144 14.826-2.633.379-1.507-10.419-3.98 11.209-2.633.379-2.144-14.825 2.632-.379 1.508 10.419Zm12.361-8.682 1.616 11.167-2.495.36-2.144-14.826 3.852-.555 5.931 10.688 2.688-11.929 3.742-.539 2.144 14.826-2.605.375-1.628-11.251-2.751 11.882-2.356.339-5.994-10.537Zm21.319 13.281 1.226-5.41-8.091-13.687 2.91-.419 6.03 10.391 2.617-11.636 2.744-.395-4.859 20.784-2.577.372Zm11.781-18.048 1.615 11.168-2.494.359-2.144-14.826 3.852-.554 5.931 10.687 2.688-11.929 3.742-.538 2.144 14.825-2.605.376-1.628-11.251-2.751 11.881-2.356.339-5.994-10.537Z"/><path fill="#101010" stroke="#fff" stroke-width="2" d="M1.086.907h161.987v45H1.086z" transform="rotate(-5.097 2379.953 -1299.473) skewX(.05)"/><path fill="#fff" d="m144.843 221.45 4.769-.425c1.599-.143 2.866.082 3.8.673.953.59 1.487 1.526 1.602 2.809.07.781-.075 1.459-.435 2.034a3.791 3.791 0 0 1-1.368 1.359 4.152 4.152 0 0 1 1.951 1.063c.554.532.874 1.272.959 2.22.121 1.338-.268 2.432-1.166 3.28-.881.829-2.149 1.317-3.804 1.464l-4.965.443-1.343-14.92Zm2.843 1.911.369 4.1 1.841-.164c.836-.075 1.453-.308 1.849-.699.412-.412.588-.953.528-1.622-.058-.651-.317-1.124-.774-1.421-.46-.315-1.117-.434-1.972-.358l-1.841.164Zm.552 6.136.405 4.489 2.091-.186c.949-.085 1.637-.352 2.065-.803.428-.45.612-1.01.551-1.68-.062-.687-.343-1.215-.845-1.583-.502-.367-1.227-.509-2.175-.424l-2.092.187Zm9.052-9.157 2.649-.236.482 5.354 1.702-.152c1.766-.157 3.197.127 4.293.854 1.097.727 1.714 1.853 1.851 3.377.14 1.562-.263 2.806-1.21 3.734-.931.908-2.279 1.441-4.045 1.598l-4.379.391-1.343-14.92Zm3.345 7.488.434 4.825 1.729-.154c.986-.088 1.701-.368 2.146-.838.445-.471.631-1.106.559-1.906-.065-.725-.367-1.269-.906-1.633-.522-.385-1.266-.534-2.233-.448l-1.729.154Zm12.501 6.138-2.65.236-1.343-14.919 2.649-.237 1.344 14.92Zm3.319-15.336 5.476 5.865-.568-6.303 2.65-.236.567 6.303 4.341-6.741 3.18-.283-4.95 7.469 6.544 7.428-3.235.288-5.734-6.544.63 7-2.649.236-.63-7-4.446 7.453-3.179.284 5.062-8.408-6.266-6.525 3.207-.286Zm20.842 8.711 4.578-10.978 2.65-.237 1.343 14.92-2.649.236-.944-10.485-4.578 10.978-2.65.236-1.343-14.919 2.649-.237.944 10.486Zm12.812-8.002 1.012 11.238-2.511.224-1.343-14.919 3.877-.346 5.347 10.992 3.326-11.766 3.765-.336 1.344 14.92-2.622.234-1.019-11.322-3.387 11.715-2.371.211-5.418-10.845Zm16.441 5.055a5.148 5.148 0 0 1 .187-1.984 4.32 4.32 0 0 1 .891-1.654 4.627 4.627 0 0 1 1.497-1.174 5.741 5.741 0 0 1 2.031-.546c.762-.069 1.414-.014 1.955.162.539.159.949.347 1.231.565l-.113-1.255c-.087-.966-.377-1.69-.87-2.171-.475-.482-1.158-.684-2.05-.604-.911.081-1.531.38-1.86.897a2.884 2.884 0 0 0-.409 1.695l-2.482.221a5.242 5.242 0 0 1 .143-1.84c.173-.578.447-1.08.82-1.507.373-.445.856-.807 1.449-1.085.612-.279 1.336-.456 2.173-.531.948-.084 1.76-.026 2.434.177.693.2 1.265.524 1.718.971.469.426.828.975 1.076 1.647.265.651.434 1.385.507 2.203l.867 9.621-2.343.209-.105-1.171a4.026 4.026 0 0 1-1.277 1.126c-.515.308-1.173.498-1.972.569a5.765 5.765 0 0 1-2.011-.158 5.192 5.192 0 0 1-1.708-.859 4.675 4.675 0 0 1-1.2-1.467 5.481 5.481 0 0 1-.579-2.057Zm2.566-.229c.072.8.383 1.446.934 1.941.569.492 1.272.702 2.108.627.819-.073 1.473-.403 1.964-.99.49-.588.7-1.281.628-2.08-.074-.819-.404-1.464-.99-1.936-.586-.473-1.297-.672-2.134-.597-.837.075-1.482.404-1.935.988-.456.565-.647 1.248-.575 2.047Zm12.741-3.048c.221 1.405.795 2.478 1.724 3.219.927.724 2.098 1.022 3.511.896 1.19-.106 2.113-.46 2.771-1.062.677-.604 1.217-1.374 1.62-2.309l2.131.878a7.138 7.138 0 0 1-.828 1.732 6.545 6.545 0 0 1-1.302 1.466 7.42 7.42 0 0 1-1.839 1.119c-.686.286-1.466.469-2.34.546-1.116.1-2.154.015-3.116-.256a7.099 7.099 0 0 1-2.539-1.347 7.093 7.093 0 0 1-1.777-2.259c-.439-.917-.711-1.961-.817-3.132-.102-1.134-.019-2.191.249-3.171.287-.981.715-1.844 1.285-2.588a6.704 6.704 0 0 1 2.172-1.796c.857-.47 1.816-.753 2.876-.847 1.097-.098 2.107-.01 3.031.263a6.357 6.357 0 0 1 2.418 1.247c.689.575 1.251 1.303 1.686 2.182.434.861.71 1.849.829 2.962l.051.558c.018.205.019.42.002.646l-11.798 1.053Zm3.959-6.622c-1.228.109-2.199.562-2.915 1.356-.715.795-1.1 1.832-1.153 3.111l9.008-.804c-.203-1.218-.757-2.162-1.661-2.831-.885-.671-1.978-.948-3.279-.832Zm11.928.594 1.012 11.239-2.51.224-1.344-14.92 3.877-.346 5.347 10.993 3.326-11.766 3.765-.336 1.344 14.919-2.622.234-1.019-11.322-3.387 11.715-2.371.212-5.418-10.846Z"/></g><defs><clipPath id="a"><path fill="#fff" d="M0 0h432v296H0z"/></clipPath></defs></svg>
