<svg width="163" height="114" fill="none" xmlns="http://www.w3.org/2000/svg">
  <path d="M160.976 28.155c9.925 27.146-17.613 62.067-61.506 77.997-43.894 15.931-87.522 6.839-97.446-20.307C-7.901 58.699 19.637 23.778 63.53 7.848c43.894-15.93 87.522-6.839 97.446 20.307Z" fill="#FECD1A"/>
  <path d="M66.566 44.16S59.46 58.09 46.173 62.897c-13.286 4.807-27.722-1.329-27.722-1.329s7.106-13.93 20.393-18.736c13.286-4.808 27.722 1.328 27.722 1.328Z" fill="#fff"/>
  <path fill-rule="evenodd" clip-rule="evenodd" d="m19.887 62.31-1.434-.73-1.434-.73.003-.006.006-.01.019-.038a16.727 16.727 0 0 1 .335-.613c.232-.412.575-.998 1.028-1.714a50.75 50.75 0 0 1 4.025-5.49c3.533-4.199 8.85-9.114 15.862-11.65 7.012-2.538 14.259-2.17 19.675-1.211a51.183 51.183 0 0 1 6.628 1.636c.808.259 1.45.489 1.893.656a25.662 25.662 0 0 1 .653.256l.038.016.012.005.004.001.001.001-.627 1.477a297.643 297.643 0 0 0-.628 1.476l-.004-.002-.024-.01-.108-.044a37.228 37.228 0 0 0-2.189-.777 47.961 47.961 0 0 0-6.205-1.531c-5.124-.907-11.74-1.204-18.017 1.068-6.276 2.27-11.157 6.728-14.499 10.699a47.545 47.545 0 0 0-3.768 5.14 36.944 36.944 0 0 0-.946 1.576 22.463 22.463 0 0 0-.285.523l-.012.023-.002.004Z" fill="#101010"/>
  <ellipse rx="6.35" ry="6.343" transform="rotate(-19.887 171.909 -95.45) skewX(.182)" fill="#101010"/>
  <path d="M134.149 19.631s-7.106 13.93-20.393 18.737c-13.286 4.807-27.721-1.328-27.721-1.328s7.106-13.93 20.392-18.737c13.286-4.807 27.722 1.328 27.722 1.328Z" fill="#fff"/>
  <path fill-rule="evenodd" clip-rule="evenodd" d="m87.47 37.782-1.434-.73c-1.434-.73-1.434-.73-1.433-.731l.002-.005.006-.011.02-.037c.016-.031.039-.076.07-.132.06-.113.148-.276.264-.481.233-.412.576-.998 1.028-1.714a50.75 50.75 0 0 1 4.025-5.49c3.533-4.199 8.85-9.114 15.862-11.651 7.012-2.538 14.259-2.17 19.676-1.21a51.154 51.154 0 0 1 6.627 1.636 39.946 39.946 0 0 1 2.407.855l.139.057.039.016.011.005.004.001h.001c.001 0 .001.001-.627 1.477l-.628 1.477-.004-.002-.024-.01-.108-.044c-.099-.04-.249-.099-.448-.174a37 37 0 0 0-1.741-.603 47.949 47.949 0 0 0-6.205-1.531c-5.124-.908-11.74-1.204-18.017 1.067-6.276 2.272-11.156 6.728-14.498 10.7a47.558 47.558 0 0 0-3.769 5.14 36.944 36.944 0 0 0-.945 1.576 22.463 22.463 0 0 0-.286.522l-.012.023-.002.004Z" fill="#101010"/>
  <ellipse rx="6.35" ry="6.343" transform="rotate(-19.887 135.743 -300.466) skewX(.182)" fill="#101010"/>
  <path fill-rule="evenodd" clip-rule="evenodd" d="M150.013 44.412 20.845 91.292l-1.468-4.016 129.168-46.88 1.468 4.016Z" fill="#101010"/>
</svg>
