<svg width="132" height="132" fill="none" xmlns="http://www.w3.org/2000/svg"><path d="M132 66c0 36.451-29.549 66-66 66-36.45 0-66-29.549-66-66C0 29.55 29.55 0 66 0c36.451 0 66 29.55 66 66Z" fill="#FF613F"/><path d="M132 66c0 36.451-29.549 66-66 66-36.45 0-66-29.549-66-66C0 29.55 29.55 0 66 0c36.451 0 66 29.55 66 66Z" fill="#FF613F"/><path fill="#101010" stroke="#101010" stroke-width="3" d="M41.447 33.631h49.105v17.842H41.447z"/><path fill="#FF613F" d="M39.947 47.763h52.105v13.895H39.947z"/><path d="m66 20.842 47.763 15.632S83.368 40.816 66 52.105C48.632 40.816 18.237 36.474 18.237 36.474L66 20.842Z" fill="#fff"/><path fill-rule="evenodd" clip-rule="evenodd" d="M23.642 36.075c3.13.588 7.443 1.481 12.286 2.719C45.47 41.233 57.203 45.04 66 50.56c8.797-5.52 20.529-9.327 30.072-11.766a197.176 197.176 0 0 1 12.286-2.719L66 22.213 23.642 36.075Zm-5.81-.84 47.763-15.631h.81l47.763 15.632-.221 2.527-.019.003-.063.01-.117.016-.134.02c-.223.035-.554.086-.982.156-.856.14-2.101.351-3.65.64-3.1.58-7.413 1.47-12.265 2.71-9.736 2.488-21.507 6.355-30.007 11.88h-1.42c-8.5-5.526-20.27-9.392-30.007-11.88a194.614 194.614 0 0 0-12.265-2.71 158.969 158.969 0 0 0-4.632-.795l-.252-.038-.062-.01-.019-.002-.221-2.527Z" fill="#101010"/><path fill-rule="evenodd" clip-rule="evenodd" d="M49.83 48.197c-13.867 0-25.08 11.097-25.08 24.75 0 13.654 11.213 24.75 25.08 24.75v2.606c-15.275 0-27.685-12.232-27.685-27.355 0-15.124 12.41-27.356 27.685-27.356 5.998 0 11.593 1.662 16.17 4.896 4.577-3.234 10.172-4.896 16.17-4.896 15.275 0 27.685 12.232 27.685 27.356 0 15.123-12.41 27.355-27.685 27.355v-2.605c13.867 0 25.08-11.097 25.08-24.75 0-13.654-11.213-24.75-25.08-24.75-5.837 0-11.162 1.708-15.377 4.941l-.793.608-.793-.608c-4.215-3.233-9.54-4.942-15.377-4.942Z" fill="#101010"/><path d="M66 74.684 58.184 87.71h15.632L66 74.684Z" fill="#101010"/><path d="M66 72.948c0 9.592-7.776 17.368-17.368 17.368-9.593 0-17.369-7.776-17.369-17.368 0-9.593 7.776-17.369 17.369-17.369C58.224 55.58 66 63.355 66 72.948Z" fill="#fff"/><path d="M56.447 72.948a7.816 7.816 0 1 1-15.631 0 7.816 7.816 0 0 1 15.631 0Z" fill="#101010"/><path d="M100.737 72.948c0 9.592-7.776 17.368-17.369 17.368C73.776 90.316 66 82.54 66 72.948c0-9.593 7.776-17.369 17.368-17.369 9.593 0 17.369 7.776 17.369 17.369Z" fill="#fff"/><path d="M91.184 72.948a7.816 7.816 0 1 1-15.631 0 7.816 7.816 0 0 1 15.631 0ZM66 98.132 58.184 87.71h15.632L66 98.132Z" fill="#101010"/></svg>