<svg width="174" height="198" viewBox="0 0 174 198" fill="none" xmlns="http://www.w3.org/2000/svg">
  <path d="M15.6923 91.61L105.165 51.5615L123.195 65.8452L136.438 153.508L51.0683 180.151L15.6923 91.61Z" fill="#AFA7A7"/>
  <path d="M84.1125 16.4505L100.222 45.5752L116.433 16.5082L115.825 49.7869L144.401 32.7195L127.233 61.2359L160.511 60.746L131.388 76.8553L160.454 93.0674L127.176 92.459L144.237 121.032L115.728 103.867L116.217 137.141L100.109 108.021L83.897 137.083L84.506 103.81L55.9342 120.87L73.0985 92.3607L39.8203 92.8506L68.9436 76.7413L39.8812 60.5226L73.1548 61.1376L56.0927 32.5591L84.6031 49.7299L84.1125 16.4505Z" fill="#AFA7A7"/>
  <path d="M130.951 77.4548C127.81 93.1282 112.558 103.288 96.8849 100.147C81.2114 97.0067 71.0516 81.7549 74.1922 66.0814C77.3329 50.408 92.5847 40.2482 108.258 43.3888C123.932 46.5295 134.091 61.7813 130.951 77.4548Z" fill="#AFA7A7"/>
  <path d="M72.4941 108.165C72.4941 108.165 65.4538 114.548 56.8847 114.424C48.3157 114.3 41.4629 107.717 41.4629 107.717C41.4629 107.717 48.5032 101.334 57.0723 101.458C65.6413 101.582 72.4941 108.165 72.4941 108.165Z" fill="#FFFAFA"/>
  <path d="M94.5947 123.345C94.5947 123.345 87.5544 129.728 78.9853 129.604C70.4163 129.48 63.5635 122.896 63.5635 122.896C63.5635 122.896 70.6038 116.514 79.1728 116.637C87.7419 116.761 94.5947 123.345 94.5947 123.345Z" fill="#FFFAFA"/>
  <path fill-rule="evenodd" clip-rule="evenodd" d="M42.1072 108.428C42.1074 108.428 42.1076 108.427 41.4628 107.716C40.818 107.005 40.8183 107.005 40.8185 107.005L40.8192 107.004L40.821 107.002L40.8266 106.997L40.8455 106.98C40.8615 106.966 40.8842 106.946 40.9136 106.921C40.9723 106.87 41.0574 106.796 41.1677 106.705C41.3881 106.521 41.7092 106.262 42.1201 105.953C42.9413 105.337 44.1255 104.517 45.5862 103.702C48.4949 102.079 52.5681 100.432 57.0861 100.498C61.6041 100.563 65.6279 102.326 68.4884 104.033C69.9249 104.891 71.085 105.744 71.888 106.384C72.2898 106.704 72.6033 106.973 72.8183 107.162C72.9258 107.257 73.0088 107.333 73.066 107.386C73.0946 107.412 73.1168 107.433 73.1324 107.447L73.1507 107.465L73.1562 107.47L73.158 107.472L73.1586 107.472C73.1589 107.473 73.1591 107.473 72.494 108.165C71.829 108.857 71.8292 108.858 71.8293 108.858L71.8273 108.856L71.8159 108.845C71.805 108.835 71.7876 108.818 71.7639 108.797C71.7166 108.753 71.644 108.687 71.5474 108.601C71.3542 108.431 71.0653 108.184 70.6908 107.885C69.9411 107.287 68.8524 106.486 67.5046 105.682C64.7964 104.066 61.1093 102.476 57.0583 102.417C53.0073 102.359 49.2757 103.842 46.5219 105.379C45.1514 106.144 44.04 106.912 43.2733 107.488C42.8904 107.776 42.5945 108.015 42.3964 108.18C42.2974 108.262 42.2229 108.326 42.1743 108.369C42.15 108.39 42.1322 108.406 42.121 108.415L42.1092 108.426L42.1072 108.428Z" fill="#101010"/>
  <path fill-rule="evenodd" clip-rule="evenodd" d="M64.2078 123.607C64.208 123.607 64.2081 123.607 63.5634 122.896C62.9186 122.185 62.9189 122.185 62.9191 122.184L62.9198 122.184L62.9216 122.182L62.9272 122.177L62.9461 122.16C62.9621 122.146 62.9848 122.126 63.0142 122.1C63.0729 122.049 63.158 121.976 63.2683 121.884C63.4887 121.701 63.8098 121.442 64.2207 121.133C65.0419 120.516 66.2261 119.697 67.6868 118.882C70.5955 117.258 74.6687 115.612 79.1867 115.677C83.7047 115.743 87.7285 117.506 90.589 119.213C92.0255 120.07 93.1856 120.923 93.9885 121.564C94.3904 121.884 94.7039 122.152 94.9189 122.342C95.0264 122.437 95.1094 122.513 95.1666 122.565C95.1952 122.592 95.2174 122.612 95.2329 122.627L95.2513 122.645L95.2568 122.65L95.2586 122.651L95.2592 122.652C95.2595 122.652 95.2597 122.653 94.5946 123.345C93.9296 124.037 93.9297 124.037 93.9299 124.037L93.9279 124.035L93.9165 124.025C93.9056 124.014 93.8882 123.998 93.8645 123.976C93.8172 123.933 93.7446 123.866 93.648 123.781C93.4548 123.611 93.1659 123.363 92.7914 123.065C92.0417 122.467 90.953 121.666 89.6052 120.862C86.897 119.246 83.2099 117.656 79.1589 117.597C75.1078 117.538 71.3763 119.021 68.6225 120.558C67.252 121.323 66.1406 122.092 65.3739 122.668C64.991 122.956 64.6951 123.195 64.497 123.36C64.398 123.442 64.3235 123.506 64.2749 123.548C64.2506 123.569 64.2328 123.585 64.2216 123.595L64.2098 123.606L64.2078 123.607Z" fill="#101010"/>
  <path d="M64.3884 108.684C64.3576 110.811 62.6079 112.511 60.4803 112.48C58.3526 112.45 56.6528 110.7 56.6835 108.572C56.7143 106.445 58.464 104.745 60.5917 104.775C62.7193 104.806 64.4192 106.556 64.3884 108.684Z" fill="#101010"/>
  <path d="M86.489 123.863C86.4582 125.991 84.7085 127.691 82.5808 127.66C80.4532 127.629 78.7534 125.879 78.7841 123.752C78.8149 121.624 80.5646 119.924 82.6923 119.955C84.8199 119.986 86.5198 121.736 86.489 123.863Z" fill="#101010"/>
  <path fill-rule="evenodd" clip-rule="evenodd" d="M57.8743 120.427L59.4687 121.497L50.8454 134.352L58.4762 134.463L58.4485 136.382L47.2802 136.221L57.8743 120.427Z" fill="#101010"/>
  <path d="M104.381 55.6338L107.4 56.2388L105.706 64.6922L102.687 64.0872L104.381 55.6338Z" fill="#FFFAFA"/>
  <path opacity="0.6" d="M117.78 73.3916L117.175 76.4107L108.722 74.7168L109.327 71.6977L117.78 73.3916Z" fill="#FFFAFA"/>
  <path opacity="0.4" d="M99.9043 77.9746L102.923 78.5796L101.229 87.033L98.2104 86.428L99.9043 77.9746Z" fill="#FFFAFA"/>
  <path opacity="0.15" d="M95.4395 68.915L94.8345 71.9341L86.3811 70.2402L86.9861 67.2211L95.4395 68.915Z" fill="#FFFAFA"/>
  <path opacity="0.15" d="M92.9277 58.9561L95.4903 57.249L100.27 64.4242L97.7074 66.1313L92.9277 58.9561Z" fill="#FFFAFA"/>
  <path d="M114.459 61.9375L116.166 64.5001L108.991 69.2798L107.284 66.7172L114.459 61.9375Z" fill="#FFFAFA"/>
  <path opacity="0.6" d="M104.436 77.8008L106.998 76.0937L111.778 83.269L109.215 84.976L104.436 77.8008Z" fill="#FFFAFA"/>
  <path opacity="0.4" d="M96.0967 74.1699L97.8037 76.7325L90.6285 81.5122L88.9215 78.9496L96.0967 74.1699Z" fill="#FFFAFA"/>
</svg>
