<svg width="148" height="180" fill="none" xmlns="http://www.w3.org/2000/svg">
  <path d="m.773 97.296 82.54-58.718 21.174 10.807 31.221 86.095-81.104 44.309L.774 97.296Z" fill="#FF613F"/>
  <path d="m54.85 7.29 22.24 26.227L87.615.79l6.142 33.828 25.493-23.085-11.607 32.365 33.625-7.25-26.243 22.226 32.748 10.52-33.847 6.138 23.092 25.476-32.377-11.6 7.252 33.601-22.237-26.223-10.528 32.723-6.14-33.822-25.49 23.077 11.605-32.358-33.625 7.25L51.72 71.43 18.975 60.902l33.844-6.13L29.725 29.29l32.38 11.604L54.85 7.29Z" fill="#FF613F"/>
  <path d="M114.704 59.569c0 16.51-13.393 29.896-29.915 29.896-16.521 0-29.914-13.385-29.914-29.896 0-16.511 13.393-29.896 29.914-29.896 16.522 0 29.915 13.385 29.915 29.896Z" fill="#FF613F"/>
  <path d="M61.699 102.535s-5.839 7.893-14.548 9.507c-8.709 1.613-16.99-3.664-16.99-3.664s5.838-7.893 14.547-9.507c8.71-1.613 16.99 3.664 16.99 3.664ZM87.179 113.423s-5.839 7.894-14.548 9.507c-8.71 1.614-16.99-3.664-16.99-3.664s5.838-7.893 14.547-9.506c8.71-1.614 16.99 3.663 16.99 3.663Z" fill="snow"/>
  <path fill-rule="evenodd" clip-rule="evenodd" d="m30.958 108.968-.798-.59c-.798-.589-.797-.59-.797-.59v-.001l.002-.002.005-.006.015-.021.057-.074c.05-.064.12-.155.214-.271.186-.23.459-.558.813-.954a31.965 31.965 0 0 1 3.055-2.983c2.618-2.235 6.411-4.729 11.003-5.58 4.592-.85 9.028.12 12.274 1.267a31.877 31.877 0 0 1 3.922 1.691c.472.243.845.451 1.101.6.128.074.228.134.296.175l.08.05.022.013.007.005.002.001v.001l-.532.836-.533.836-.002-.001-.014-.009-.063-.038a23.31 23.31 0 0 0-1.273-.706 30.029 30.029 0 0 0-3.676-1.584c-3.072-1.087-7.132-1.95-11.25-1.187-4.116.763-7.597 3.022-10.075 5.138a29.945 29.945 0 0 0-2.864 2.796 23.408 23.408 0 0 0-.935 1.114l-.045.058-.01.014-.001.002ZM56.438 119.856l-.798-.59c-.798-.589-.797-.589-.797-.59l.002-.002.005-.007.015-.021.057-.074c.05-.064.12-.155.214-.27.186-.231.459-.558.812-.954a31.827 31.827 0 0 1 3.056-2.984c2.618-2.234 6.411-4.729 11.003-5.579 4.592-.851 9.028.119 12.273 1.267a31.954 31.954 0 0 1 3.923 1.69 25.748 25.748 0 0 1 1.397.776l.08.049.022.014.007.004.002.001v.001l-.532.836c-.534.836-.533.837-.533.837l-.002-.002-.014-.008a23.51 23.51 0 0 0-1.335-.744 29.855 29.855 0 0 0-3.677-1.585c-3.072-1.087-7.132-1.949-11.25-1.186-4.116.762-7.597 3.022-10.075 5.137a29.945 29.945 0 0 0-2.864 2.796 23.312 23.312 0 0 0-.935 1.115l-.045.058-.01.013-.001.002Z" fill="#101010"/>
  <path d="M53.59 104.705a3.98 3.98 0 0 1-3.19 4.638 3.98 3.98 0 1 1-1.452-7.826 3.983 3.983 0 0 1 4.642 3.188ZM79.07 115.593a3.983 3.983 0 0 1-7.83 1.451 3.98 3.98 0 0 1 3.189-4.638 3.981 3.981 0 0 1 4.64 3.187Z" fill="#101010"/>
  <path fill-rule="evenodd" clip-rule="evenodd" d="m49.374 117.92 1.833.76-6.129 14.77 7.756-1.437.361 1.95-11.35 2.103 7.529-18.146Z" fill="#101010"/>
  <path d="M83.347 42.86h3.183v8.906h-3.183v-8.905Z" fill="snow"/>
  <path opacity=".6" d="M100.532 58.127v3.18h-8.91v-3.18h8.91Z" fill="snow"/>
  <path opacity=".4" d="M83.347 66.396h3.183v8.905h-3.183v-8.905Z" fill="snow"/>
  <path opacity=".15" d="M76.982 58.127v3.18h-8.91v-3.18h8.91ZM72.414 48.55l2.25-2.249 6.301 6.297-2.25 2.249-6.301-6.297Z" fill="snow"/>
  <path d="m94.84 47.2 2.25 2.25-6.3 6.296-2.251-2.249 6.3-6.297Z" fill="snow"/>
  <path opacity=".6" d="m87.903 65.3 2.25-2.248 6.3 6.297-2.25 2.248-6.3-6.296Z" fill="snow"/>
  <path opacity=".4" d="m78.715 63.315 2.25 2.25-6.3 6.296-2.251-2.249 6.3-6.297Z" fill="snow"/>
</svg>
