<svg width="152" height="152" fill="none" xmlns="http://www.w3.org/2000/svg">
  <path d="M151.561 67.906c4.47 41.732-25.736 79.186-67.468 83.655C42.363 156.031 4.909 125.825.44 84.093-4.031 42.363 26.175 4.909 67.907.44c41.731-4.47 79.185 25.736 83.654 67.468Z" fill="#FF613F"/>
  <path d="M56.493 54.23c.945 8.828-2.48 14.573-15.34 12.644-12.86 4.501-15.68-.392-16.626-9.22-.945-8.826 5.444-16.749 14.271-17.694 8.827-.946 16.75 5.444 17.695 14.27Z" fill="#fff"/>
  <path fill-rule="evenodd" clip-rule="evenodd" d="M51.948 66.067c5.241-6.498 4.222-16.014-2.276-21.255-6.498-5.24-16.015-4.222-21.255 2.277-5.241 6.498-4.222 16.014 2.276 21.255l-1.883 2.335c-7.788-6.281-9.01-17.686-2.729-25.474s17.686-9.01 25.474-2.728c7.788 6.28 9.01 17.686 2.728 25.473l-2.335-1.883Z" fill="#101010"/>
  <path d="M46.658 47.568a7.264 7.264 0 1 1-14.446 1.547 7.264 7.264 0 0 1 14.446-1.547Z" fill="#101010"/>
  <path fill-rule="evenodd" clip-rule="evenodd" d="M56.701 71.91c-9.049-7.298-22.301-5.879-29.6 3.17l-2.335-1.883c8.338-10.34 23.48-11.96 33.819-3.622L56.7 71.91Z" fill="#101010"/>
  <path d="M125.839 46.738c.946 8.827-2.479 14.572-15.34 12.643-12.86 4.502-15.68-.392-16.625-9.219-.946-8.827 5.444-16.75 14.271-17.695 8.827-.945 16.749 5.444 17.694 14.271Z" fill="#fff"/>
  <path fill-rule="evenodd" clip-rule="evenodd" d="M121.295 58.574c5.24-6.498 4.221-16.014-2.277-21.255-6.498-5.24-16.014-4.221-21.255 2.277-5.24 6.498-4.222 16.014 2.277 21.255l-1.884 2.335c-7.788-6.28-9.01-17.686-2.728-25.473 6.281-7.788 17.686-9.01 25.473-2.729 7.788 6.281 9.01 17.686 2.729 25.474l-2.335-1.884Z" fill="#101010"/>
  <path d="M116.005 40.075a7.264 7.264 0 1 1-14.446 1.547 7.264 7.264 0 0 1 14.446-1.547Z" fill="#101010"/>
  <path fill-rule="evenodd" clip-rule="evenodd" d="M126.048 64.417c-9.05-7.298-22.302-5.879-29.6 3.17l-2.336-1.883c8.339-10.339 23.48-11.96 33.819-3.622l-1.883 2.335Z" fill="#101010"/>
  <path d="M44.527 98.816c-.53-5.048 2.014-9.89 6.796-11.592 5.717-2.034 14.594-4.49 26.508-5.741 11.937-1.255 21.18-.698 27.228.102 5.041.666 8.553 4.878 9.085 9.935.737 7.015-4.65 13.258-10.974 10.133-5.588-2.762-11.194-6.486-23.44-5.2-12.408 1.305-17.17 6.235-22.27 10.138-5.61 4.294-12.195-.749-12.933-7.775Z" fill="#fff"/>
  <path fill-rule="evenodd" clip-rule="evenodd" d="M77.988 82.974c-11.787 1.24-20.548 3.666-26.162 5.664-4.024 1.431-6.278 5.544-5.807 10.021.327 3.114 1.946 5.706 3.971 7.036 1.95 1.281 4.3 1.434 6.559-.295.56-.429 1.131-.883 1.72-1.351 1.976-1.572 4.154-3.305 6.855-4.811 3.565-1.987 8.054-3.604 14.45-4.276 6.31-.663 10.977-.04 14.813 1.14 3.03.93 5.537 2.214 7.801 3.373.562.288 1.11.568 1.647.833 2.543 1.257 4.784.647 6.409-.979 1.69-1.692 2.735-4.543 2.408-7.652-.471-4.484-3.545-8.044-7.79-8.605-5.94-.786-15.064-1.339-26.874-.098ZM50.82 85.811c5.82-2.07 14.814-4.555 26.855-5.82 12.063-1.268 21.424-.707 27.581.107 5.837.771 9.788 5.635 10.38 11.265.41 3.906-.87 7.684-3.27 10.086-2.466 2.469-6.08 3.417-9.86 1.549-.603-.298-1.195-.601-1.785-.902-2.24-1.146-4.461-2.281-7.215-3.127-3.425-1.052-7.684-1.647-13.618-1.024-6.014.632-10.11 2.133-13.303 3.913-2.466 1.375-4.388 2.903-6.33 4.447-.62.492-1.24.986-1.883 1.477-3.352 2.566-7.1 2.344-10.029.421-2.854-1.875-4.897-5.318-5.308-9.23-.59-5.62 2.246-11.19 7.785-13.162Z" fill="#101010"/>
  <path fill-rule="evenodd" clip-rule="evenodd" d="m79.93 82.17 1.48 14.07-2.984.313-1.48-14.07 2.984-.313ZM96.692 81.702l1.747 16.627-2.983.313-1.748-16.627 2.984-.313ZM62.159 85.331l1.882 17.906-2.984.314-1.882-17.906 2.984-.314Z" fill="#101010"/>
</svg>
