<svg width="84" height="102" fill="none" xmlns="http://www.w3.org/2000/svg">
  <path d="M58.436.02c-3.233-.34-6.32 3.636-7.714 9.414-.929-4.247-2.97-7.229-5.563-7.5-3.975-.42-7.732 5.695-8.39 13.656-.658 7.961 2.03 14.756 6.006 15.175.184.02.366.02.547.013.809 4.779 2.965 8.22 5.757 8.514 3.425.362 6.686-4.129 7.945-10.468 3.6-.57 6.815-6.318 7.42-13.627C65.1 7.233 62.41.438 58.435.02Z" fill="#AFA7A7"/>
  <path d="M80.168 42.085c9.667 21.225.415 46.322-20.664 56.056-21.08 9.734-46.004.419-55.671-20.806-9.668-21.225-.416-46.322 20.663-56.056 21.08-9.734 46.004-.419 55.672 20.806Z" fill="#AFA7A7"/>
  <path d="M31.57 61.194c1.861 4.088.08 8.923-3.981 10.798-4.06 1.875-8.862.08-10.724-4.008s-.08-8.923 3.98-10.798 8.862-.08 10.724 4.008Z" fill="#fff"/>
  <path fill-rule="evenodd" clip-rule="evenodd" d="M18.153 67.725c1.673 3.673 5.986 5.285 9.634 3.6 3.647-1.684 5.248-6.027 3.575-9.7-1.673-3.672-5.986-5.284-9.633-3.6l-.834-1.83c4.652-2.147 10.152-.092 12.285 4.591 2.133 4.684.091 10.222-4.56 12.37-4.651 2.147-10.151.092-12.284-4.592l1.817-.839Z" fill="#101010"/>
  <path d="M63.042 46.226c1.862 4.088.08 8.923-3.98 10.798-4.061 1.875-8.862.08-10.724-4.008-1.863-4.089-.08-8.923 3.98-10.798s8.862-.08 10.724 4.008Z" fill="#fff"/>
  <path fill-rule="evenodd" clip-rule="evenodd" d="M49.805 53.11c1.673 3.672 5.986 5.284 9.633 3.6 3.648-1.685 5.249-6.028 3.576-9.7-1.673-3.673-5.986-5.285-9.633-3.6l-.834-1.83c4.651-2.148 10.151-.093 12.284 4.59 2.133 4.684.092 10.222-4.56 12.37-4.65 2.147-10.15.092-12.283-4.591l1.817-.84Z" fill="#101010"/>
  <path fill-rule="evenodd" clip-rule="evenodd" d="m49.566 62.78-8.715 4.025-.833-1.83 5.657-2.613c-6.192-5.464-7.397-14.87-2.528-21.779 5.198-7.375 15.35-9.11 22.673-3.877l-1.157 1.642c-6.423-4.59-15.326-3.068-19.885 3.4-4.56 6.468-3.048 15.433 3.376 20.023l1.412 1.01Z" fill="#101010"/>
  <path d="M30.33 59.85c.832 1.827.036 3.987-1.778 4.825a3.603 3.603 0 0 1-4.791-1.79c-.832-1.827-.036-3.987 1.778-4.825a3.603 3.603 0 0 1 4.791 1.79ZM61.982 45.235c.832 1.826.036 3.986-1.778 4.824a3.604 3.604 0 0 1-4.791-1.79c-.832-1.827-.036-3.987 1.778-4.825a3.603 3.603 0 0 1 4.791 1.79Z" fill="#101010"/>
  <path fill-rule="evenodd" clip-rule="evenodd" d="M44.205 76.101c-.243 1.75.073 3.935 1.064 6.11.99 2.174 2.428 3.84 3.904 4.797 1.487.964 2.88 1.14 3.937.652 1.057-.488 1.835-1.666 2.079-3.43.243-1.75-.073-3.935-1.064-6.11-.99-2.174-2.428-3.84-3.904-4.797-1.487-.964-2.88-1.14-3.938-.652-1.057.488-1.834 1.666-2.078 3.43Zm-1.98-.278c.3-2.172 1.335-4.109 3.225-4.982 1.89-.873 4.023-.398 5.854.79 1.842 1.194 3.514 3.18 4.639 5.65 1.125 2.47 1.529 5.042 1.226 7.227-.3 2.172-1.335 4.109-3.225 4.982-1.89.873-4.023.398-5.854-.79-1.842-1.194-3.514-3.18-4.639-5.65-1.125-2.47-1.53-5.042-1.226-7.227Z" fill="#101010"/>
</svg>
