<svg width="152" height="152" fill="none" xmlns="http://www.w3.org/2000/svg">
  <path d="M103.254 0 0 48.746 48.746 152 152 103.254l-43.131-44.951L103.254 0Z" fill="#AFA7A7"/>
  <circle r="11.834" transform="scale(-1 1) rotate(15.641 -259.121 -91.512)" fill="#fff"/>
  <circle r="11.834" transform="scale(-1 1) rotate(15.641 -251.578 -227.36)" fill="#fff"/>
  <circle r="6.187" transform="scale(-1 1) rotate(15.641 -258.726 -70.516)" fill="#101010"/>
  <circle r="6.187" transform="scale(-1 1) rotate(15.641 -251.183 -206.364)" fill="#101010"/>
  <path fill-rule="evenodd" clip-rule="evenodd" d="M58.84 87.762c3.252 2.969 6.627 7.695 9.284 13.494 2.657 5.798 4.034 11.441 4.16 15.841.062 2.204-.19 4.02-.694 5.368-.5 1.34-1.201 2.113-1.994 2.476-.792.363-1.836.39-3.177-.106-1.35-.499-2.89-1.493-4.518-2.98-3.251-2.968-6.627-7.695-9.284-13.493-2.657-5.799-4.033-11.441-4.16-15.842-.062-2.203.19-4.02.694-5.368.5-1.34 1.201-2.113 1.994-2.476.792-.363 1.836-.39 3.177.106 1.35.5 2.89 1.494 4.518 2.98Zm-3.477-5.793c-1.837-.68-3.743-.81-5.468-.02s-2.87 2.32-3.555 4.155c-.682 1.827-.95 4.059-.881 6.502.14 4.891 1.648 10.932 4.43 17.005 2.784 6.074 6.375 11.16 9.989 14.46 1.804 1.647 3.671 2.901 5.5 3.578 1.837.679 3.743.81 5.468.019 1.725-.79 2.87-2.319 3.555-4.154.682-1.827.95-4.06.881-6.502-.14-4.892-1.647-10.932-4.43-17.006-2.784-6.074-6.375-11.16-9.989-14.46-1.804-1.647-3.67-2.9-5.5-3.577Z" fill="#101010"/>
</svg>
