<svg width="152" height="152" fill="none" xmlns="http://www.w3.org/2000/svg">
  <path d="m39.006 9.601 22.341 8.167L77.162 0l15.264 18.243 22.58-7.48 4.098 23.431 23.295 4.812-8.167 22.341L152 77.162l-18.243 15.264 7.48 22.58-23.431 4.098-4.812 23.295-22.341-8.167L74.838 152l-15.264-18.243-22.58 7.48-4.098-23.431-23.295-4.812 8.167-22.341L0 74.838l18.243-15.264-7.48-22.58 23.431-4.098 4.812-23.295Z" fill="#FECD1A"/>
  <path d="M103.796 41.514c3.815 6.847 1.585 12.543-7.9 14.774-7.81 7.81-13.08 5.888-16.896-.959-3.815-6.847-1.357-15.49 5.49-19.305 6.848-3.815 15.491-1.357 19.306 5.49Z" fill="#fff"/>
  <path fill-rule="evenodd" clip-rule="evenodd" d="M94.433 35.912c-6.907-1.964-14.098 2.042-16.062 8.949-1.964 6.906 2.042 14.097 8.949 16.06l-.821 2.886c-8.5-2.417-13.43-11.267-11.013-19.767s11.267-13.431 19.767-11.014c8.5 2.418 13.431 11.268 11.014 19.768l-2.886-.82c1.964-6.907-2.042-14.098-8.948-16.062Z" fill="#101010"/>
  <path d="M96.904 44.015a6.694 6.694 0 1 1-11.696 6.517 6.694 6.694 0 0 1 11.696-6.517Z" fill="#101010"/>
  <path fill-rule="evenodd" clip-rule="evenodd" d="M111.555 55.682c-10.424-3.116-21.4 2.808-24.516 13.231l-2.875-.859c3.591-12.01 16.239-18.837 28.25-15.246l-.859 2.874Z" fill="#101010"/>
  <path d="M56.75 70.918c3.816 6.847 1.585 12.542-7.898 14.774-7.81 7.81-13.082 5.888-16.897-.96-3.815-6.846-1.357-15.49 5.49-19.305 6.847-3.815 15.49-1.356 19.306 5.49Z" fill="#fff"/>
  <path fill-rule="evenodd" clip-rule="evenodd" d="M47.571 65.316c-6.906-1.965-14.097 2.042-16.061 8.948-1.964 6.907 2.042 14.098 8.948 16.062l-.82 2.885c-8.5-2.417-13.431-11.267-11.014-19.767 2.418-8.5 11.268-13.431 19.768-11.014s13.43 11.268 11.014 19.768l-2.886-.821c1.964-6.906-2.042-14.097-8.949-16.061Z" fill="#101010"/>
  <path d="M49.862 73.415a6.693 6.693 0 1 1-11.694 6.515 6.693 6.693 0 0 1 11.694-6.515Z" fill="#101010"/>
  <path fill-rule="evenodd" clip-rule="evenodd" d="M64.51 85.086c-10.424-3.116-21.4 2.808-24.517 13.231l-2.874-.86c3.59-12.01 16.239-18.836 28.25-15.245l-.86 2.874Z" fill="#101010"/>
  <path d="m56.407 102.874 52.757-29.393 2.271 4.076c4.032 7.237 1.434 16.372-5.803 20.404l-26.55 14.792c-7.237 4.032-16.372 1.434-20.404-5.803l-2.27-4.076Z" fill="#fff"/>
  <path fill-rule="evenodd" clip-rule="evenodd" d="m54.367 102.294 55.377-30.853 3.001 5.386c4.435 7.96 1.577 18.01-6.383 22.445l-26.55 14.791c-7.96 4.436-18.009 1.578-22.444-6.383l-3.001-5.386Zm4.08 1.161 1.542 2.765c3.628 6.513 11.85 8.851 18.363 5.223l26.55-14.792c6.513-3.629 8.851-11.85 5.222-18.364l-1.541-2.766-50.135 27.934Z" fill="#101010"/>
  <path fill-rule="evenodd" clip-rule="evenodd" d="m84.074 87.409 9.235 16.575-2.621 1.46-9.235-16.575 2.62-1.46ZM96.645 80.404l9.235 16.576-2.621 1.46-9.235-16.576 2.621-1.46ZM71.53 94.397l9.235 16.576-2.62 1.46-9.235-16.576 2.62-1.46Z" fill="#101010"/>
</svg>
